<svg width="34" height="34" viewBox="0 0 34 34" fill="none" xmlns="http://www.w3.org/2000/svg">
<path d="M0.789856 33.2765L3.0788 24.9179C1.66689 22.4715 0.924225 19.6965 0.925262 16.8534C0.928894 7.95941 8.16666 0.723465 17.0604 0.723465C21.3763 0.725281 25.4274 2.40515 28.4737 5.45413C31.5199 8.50311 33.1969 12.556 33.1953 16.8664C33.1914 25.7602 25.9526 32.9972 17.0604 32.9972C17.0599 32.9972 17.0607 32.9972 17.0604 32.9972H17.0534C14.3531 32.9961 11.6999 32.3188 9.34329 31.0335L0.789856 33.2765ZM9.7394 28.1134L10.2294 28.4037C12.288 29.6255 14.6483 30.2717 17.0552 30.2729H17.0604C24.4518 30.2729 30.4677 24.258 30.4709 16.8654C30.4722 13.2828 29.0787 9.91399 26.5467 7.37991C24.0144 4.84584 20.6477 3.44949 17.0654 3.44794C9.66806 3.44794 3.65233 9.46211 3.64948 16.8545C3.64844 19.3878 4.35712 21.8547 5.69977 23.9895L6.01883 24.4969L4.66373 29.4442L9.7394 28.1134Z" fill="white"/>
<path d="M1.35095 32.7134L3.56078 24.6437C2.19737 22.2822 1.48065 19.6028 1.48143 16.8586C1.4848 8.27251 8.47225 1.28714 17.0576 1.28714C21.2246 1.28896 25.1355 2.91072 28.0758 5.85413C31.0169 8.79753 32.6356 12.7101 32.634 16.8708C32.6304 25.4572 25.6427 32.4433 17.0584 32.4433C17.0576 32.4433 17.0586 32.4433 17.0584 32.4433H17.0514C14.4447 32.4423 11.8831 31.7881 9.60816 30.5482L1.35095 32.7134Z" fill="#2CB742"/>
<path d="M0.789856 33.2765L3.0788 24.9179C1.66689 22.4715 0.924225 19.6965 0.925262 16.8534C0.928894 7.95941 8.16666 0.723465 17.0604 0.723465C21.3763 0.725281 25.4274 2.40515 28.4737 5.45413C31.5199 8.50311 33.1969 12.556 33.1953 16.8664C33.1914 25.7602 25.9526 32.9972 17.0604 32.9972C17.0599 32.9972 17.0607 32.9972 17.0604 32.9972H17.0534C14.3531 32.9961 11.6999 32.3188 9.34329 31.0335L0.789856 33.2765ZM9.7394 28.1134L10.2294 28.4037C12.288 29.6255 14.6483 30.2717 17.0552 30.2729H17.0604C24.4518 30.2729 30.4677 24.258 30.4709 16.8654C30.4722 13.2828 29.0787 9.91399 26.5467 7.37991C24.0144 4.84584 20.6477 3.44949 17.0654 3.44794C9.66806 3.44794 3.65233 9.46211 3.64948 16.8545C3.64844 19.3878 4.35712 21.8547 5.69977 23.9895L6.01883 24.4969L4.66373 29.4442L9.7394 28.1134Z" fill="white"/>
<path fill-rule="evenodd" clip-rule="evenodd" d="M13.0278 10.1101C12.7258 9.43877 12.4078 9.42528 12.1204 9.41361C11.8854 9.40349 11.6164 9.40401 11.3479 9.40401C11.0792 9.40401 10.6423 9.50517 10.273 9.90854C9.90332 10.3119 8.86157 11.2872 8.86157 13.2709C8.86157 15.2548 10.3064 17.1715 10.508 17.4407C10.7095 17.7097 13.297 21.9104 17.3948 23.5265C20.8004 24.8697 21.4933 24.6025 22.2326 24.5353C22.9718 24.4681 24.6177 23.56 24.9537 22.6186C25.2898 21.6772 25.2898 20.8705 25.1889 20.7016C25.088 20.5338 24.8193 20.4329 24.4162 20.2313C24.0131 20.0298 22.031 19.0542 21.6614 18.9198C21.2917 18.7852 21.023 18.7183 20.7542 19.1219C20.4852 19.525 19.7133 20.4329 19.478 20.7016C19.2427 20.9711 19.0074 21.0049 18.6043 20.8031C18.2012 20.601 16.9027 20.1756 15.3624 18.802C14.1639 17.7336 13.3546 16.4138 13.1193 16.0101C12.8843 15.607 13.1155 15.4078 13.2965 15.1876C13.6226 14.791 14.1697 14.0779 14.304 13.8091C14.4384 13.5399 14.3712 13.3046 14.2706 13.1028C14.1697 12.9012 13.386 10.9075 13.0278 10.1101Z" fill="white"/>
</svg>
