<svg width="86" height="57" viewBox="0 0 86 57" fill="none" xmlns="http://www.w3.org/2000/svg">
<path d="M9.35156 41.5938C9.26367 41.5938 9.17578 41.5996 9.08789 41.6113C9 41.6172 8.91211 41.623 8.82422 41.6289L7.61133 50.5762C7.58789 50.7461 7.65527 50.8691 7.81348 50.9453C7.97168 51.0215 8.27344 51.0596 8.71875 51.0596C9.12305 51.0596 9.49512 50.9834 9.83496 50.8311C10.1807 50.6729 10.4941 50.4619 10.7754 50.1982C11.0566 49.9287 11.3027 49.6182 11.5137 49.2666C11.7305 48.9092 11.9121 48.5283 12.0586 48.124C12.2051 47.7197 12.3135 47.3037 12.3838 46.876C12.46 46.4424 12.498 46.0205 12.498 45.6104C12.498 44.9834 12.4395 44.4238 12.3223 43.9316C12.2051 43.4336 12.0176 43.0117 11.7598 42.666C11.5078 42.3203 11.1826 42.0566 10.7842 41.875C10.3857 41.6875 9.9082 41.5938 9.35156 41.5938ZM14.7129 45.3818C14.7129 45.8975 14.6514 46.4189 14.5283 46.9463C14.4053 47.4736 14.2266 47.9834 13.9922 48.4756C13.7578 48.9619 13.4707 49.4219 13.1309 49.8555C12.791 50.2832 12.4014 50.6553 11.9619 50.9717C11.5283 51.2881 11.0479 51.54 10.5205 51.7275C9.99316 51.9092 9.4248 52 8.81543 52H4.25391L4.3418 51.3584C4.71094 51.2764 4.99512 51.1885 5.19434 51.0947C5.39355 50.9951 5.49902 50.9043 5.51074 50.8223L6.75879 41.8135L5.51953 41.9893V41.1719C5.85352 41.0898 6.20508 41.0195 6.57422 40.9609C6.94336 40.8965 7.3125 40.8438 7.68164 40.8027C8.05078 40.7559 8.41113 40.7207 8.7627 40.6973C9.11426 40.6738 9.43945 40.6621 9.73828 40.6621C10.5879 40.6621 11.3262 40.7734 11.9531 40.9961C12.5801 41.2129 13.0957 41.5264 13.5 41.9365C13.9102 42.3467 14.2148 42.8418 14.4141 43.4219C14.6133 44.002 14.7129 44.6553 14.7129 45.3818ZM20.0654 48.6777C20.1006 48.4316 20.1387 48.168 20.1797 47.8867C20.2266 47.6055 20.2705 47.3301 20.3115 47.0605C20.3584 46.7852 20.4023 46.5244 20.4434 46.2783C20.4844 46.0264 20.5225 45.8096 20.5576 45.6279C20.3877 45.4697 20.209 45.3291 20.0215 45.2061C19.834 45.083 19.6494 45.0215 19.4678 45.0215C19.2217 45.0273 18.9961 45.0889 18.791 45.2061C18.5859 45.3232 18.4014 45.4785 18.2373 45.6719C18.0791 45.8652 17.9385 46.0879 17.8154 46.3398C17.6924 46.5859 17.5898 46.8438 17.5078 47.1133C17.4316 47.3828 17.373 47.6523 17.332 47.9219C17.291 48.1855 17.2705 48.4346 17.2705 48.6689C17.2705 48.9971 17.2939 49.2842 17.3408 49.5303C17.3877 49.7764 17.4492 49.9814 17.5254 50.1455C17.6074 50.3037 17.6982 50.4238 17.7979 50.5059C17.9033 50.5879 18.0117 50.6289 18.123 50.6289C18.3105 50.6289 18.5742 50.4619 18.9141 50.1279C19.2539 49.7939 19.6377 49.3105 20.0654 48.6777ZM23.5547 51.0684C23.3086 51.2441 23.0625 51.4111 22.8164 51.5693C22.5762 51.7217 22.3506 51.8594 22.1396 51.9824C21.9287 52.0996 21.7383 52.1904 21.5684 52.2549C21.4043 52.3252 21.2695 52.3604 21.1641 52.3604C21.0645 52.3604 20.9502 52.3281 20.8213 52.2637C20.6982 52.1992 20.5781 52.0879 20.4609 51.9297C20.3496 51.7656 20.2471 51.5488 20.1533 51.2793C20.0654 51.0098 20.0068 50.6699 19.9775 50.2598C19.79 50.5176 19.5879 50.7725 19.3711 51.0244C19.1602 51.2764 18.9375 51.502 18.7031 51.7012C18.4746 51.9004 18.2373 52.0586 17.9912 52.1758C17.751 52.2988 17.5137 52.3604 17.2793 52.3604C17.0684 52.3604 16.8457 52.3047 16.6113 52.1934C16.377 52.082 16.1602 51.9062 15.9609 51.666C15.7676 51.4199 15.6035 51.1064 15.4688 50.7256C15.3398 50.3389 15.2754 49.8701 15.2754 49.3193C15.2754 48.8564 15.334 48.4053 15.4512 47.9658C15.5684 47.5205 15.7383 47.0957 15.9609 46.6914C16.1836 46.2871 16.4561 45.9092 16.7783 45.5576C17.1006 45.2002 17.4697 44.8809 17.8857 44.5996C18.0439 44.4941 18.2197 44.3916 18.4131 44.292C18.6064 44.1924 18.8115 44.1045 19.0283 44.0283C19.2451 43.9521 19.4707 43.8906 19.7051 43.8438C19.9453 43.7969 20.1885 43.7734 20.4346 43.7734C20.6807 43.7734 20.9209 43.8291 21.1553 43.9404C21.3955 44.0518 21.6182 44.1719 21.8232 44.3008C22.0225 44.2012 22.2217 44.1104 22.4209 44.0283C22.6201 43.9404 22.7988 43.8555 22.957 43.7734L23.2295 44.3447C23.1299 44.4268 23.0479 44.5 22.9834 44.5645C22.9189 44.6289 22.8604 44.7051 22.8076 44.793C22.7607 44.875 22.7197 44.9775 22.6846 45.1006C22.6494 45.2236 22.6113 45.3848 22.5703 45.584C22.4824 46.0059 22.4033 46.416 22.333 46.8145C22.2627 47.207 22.2012 47.5703 22.1484 47.9043C22.1016 48.2324 22.0664 48.5225 22.043 48.7744C22.0195 49.0264 22.0078 49.2168 22.0078 49.3457C22.0078 49.75 22.0518 50.084 22.1396 50.3477C22.2275 50.6055 22.3389 50.7344 22.4736 50.7344C22.5908 50.7344 22.7168 50.7197 22.8516 50.6904C22.9922 50.6553 23.1797 50.5879 23.4141 50.4883L23.5547 51.0684ZM30.5332 44.582C30.4336 44.7168 30.3193 44.8633 30.1904 45.0215C30.0674 45.1797 29.9414 45.3262 29.8125 45.4609C29.6895 45.5957 29.5752 45.71 29.4697 45.8037C29.3643 45.8975 29.2822 45.9443 29.2236 45.9443C29.1299 45.9443 29.0244 45.8828 28.9072 45.7598C28.7959 45.6367 28.667 45.5049 28.5205 45.3643C28.3799 45.2178 28.2217 45.083 28.0459 44.96C27.876 44.8369 27.6855 44.7754 27.4746 44.7754C27.1465 44.7754 26.8975 44.8604 26.7275 45.0303C26.5576 45.1943 26.4727 45.417 26.4727 45.6982C26.4727 45.9736 26.5928 46.2139 26.833 46.4189C27.0732 46.624 27.4307 46.8467 27.9053 47.0869C28.1455 47.21 28.3799 47.3447 28.6084 47.4912C28.8428 47.6377 29.0508 47.8047 29.2324 47.9922C29.4199 48.1797 29.5693 48.3936 29.6807 48.6338C29.792 48.874 29.8477 49.1494 29.8477 49.46C29.8477 49.7295 29.7891 49.9902 29.6719 50.2422C29.5605 50.4883 29.4082 50.7197 29.2148 50.9365C29.0215 51.1475 28.7959 51.3408 28.5381 51.5166C28.2861 51.6924 28.0195 51.8447 27.7383 51.9736C27.4629 52.0967 27.1816 52.1904 26.8945 52.2549C26.6074 52.3252 26.3379 52.3604 26.0859 52.3604C25.7109 52.3604 25.3623 52.3135 25.04 52.2197C24.7178 52.126 24.4365 52.0117 24.1963 51.877C23.9619 51.7363 23.7773 51.5869 23.6426 51.4287C23.5078 51.2705 23.4404 51.1299 23.4404 51.0068C23.4404 50.9248 23.4844 50.7959 23.5723 50.6201C23.6543 50.4385 23.751 50.2568 23.8623 50.0752C23.9736 49.8877 24.085 49.7266 24.1963 49.5918C24.3135 49.4512 24.4043 49.3809 24.4688 49.3809C24.5215 49.3809 24.5771 49.4277 24.6357 49.5215C24.6943 49.6152 24.7617 49.7324 24.8379 49.873C24.9199 50.0078 25.0137 50.1572 25.1191 50.3213C25.2305 50.4795 25.3564 50.6289 25.4971 50.7695C25.6436 50.9043 25.8105 51.0186 25.998 51.1123C26.1914 51.2061 26.4111 51.2529 26.6572 51.2529C27.0439 51.2529 27.3486 51.1475 27.5713 50.9365C27.7939 50.7197 27.9053 50.4414 27.9053 50.1016C27.9053 49.9023 27.8555 49.7178 27.7559 49.5479C27.6562 49.3779 27.5215 49.2197 27.3516 49.0732C27.1875 48.9209 27 48.7832 26.7891 48.6602C26.5781 48.5312 26.3643 48.4111 26.1475 48.2998C25.8369 48.1416 25.5791 47.9834 25.374 47.8252C25.1689 47.6611 25.0049 47.4971 24.8818 47.333C24.7646 47.1631 24.6797 46.9902 24.627 46.8145C24.5801 46.6328 24.5566 46.4482 24.5566 46.2607C24.5566 45.8916 24.665 45.5547 24.8818 45.25C25.0986 44.9453 25.3711 44.6846 25.6992 44.4678C26.0332 44.2451 26.3994 44.0752 26.7979 43.958C27.1963 43.835 27.5771 43.7734 27.9404 43.7734C28.2568 43.7734 28.5352 43.8115 28.7754 43.8877C29.0156 43.958 29.2354 44.04 29.4346 44.1338C29.6396 44.2217 29.8271 44.3096 29.9971 44.3975C30.1729 44.4854 30.3516 44.5469 30.5332 44.582ZM36.3428 50.6377C36.0205 50.8955 35.6982 51.1299 35.376 51.3408C35.0537 51.5518 34.7432 51.7334 34.4443 51.8857C34.1514 52.0322 33.8818 52.1465 33.6357 52.2285C33.3955 52.3164 33.1934 52.3604 33.0293 52.3604C32.8535 52.3604 32.6748 52.3164 32.4932 52.2285C32.3174 52.1406 32.1562 52.0205 32.0098 51.8682C31.8691 51.71 31.7549 51.5225 31.667 51.3057C31.5791 51.0889 31.5352 50.8516 31.5352 50.5938C31.5352 50.4824 31.5352 50.3711 31.5352 50.2598C31.541 50.1484 31.5469 50.0342 31.5527 49.917C31.5645 49.7939 31.5762 49.665 31.5879 49.5303C31.6055 49.3955 31.6289 49.2461 31.6582 49.082L32.291 45.1006H31.1045L30.9023 44.7578L31.957 44.0459H32.458L32.5107 43.7383C32.5459 43.498 32.5811 43.3105 32.6162 43.1758C32.6572 43.0352 32.7012 42.9238 32.748 42.8418C32.8008 42.7598 32.8564 42.6953 32.915 42.6484C32.9736 42.6016 33.041 42.5488 33.1172 42.4902L34.7959 41.6641L35.042 41.8838C34.9951 41.9365 34.9482 42.0303 34.9014 42.165C34.8545 42.2822 34.8047 42.4492 34.752 42.666C34.7051 42.8828 34.6523 43.1729 34.5938 43.5361L34.5146 44.0459H36.6328L36.8789 44.3535C36.8203 44.4355 36.7324 44.5352 36.6152 44.6523C36.5039 44.7695 36.3867 44.8867 36.2637 45.0039C36.1406 45.1152 36.0234 45.2178 35.9121 45.3115C35.8008 45.4053 35.7188 45.4668 35.666 45.4961C35.5957 45.332 35.458 45.2266 35.2529 45.1797C35.0479 45.127 34.7578 45.1006 34.3828 45.1006H34.3477L33.8467 48.2734C33.8291 48.3848 33.8115 48.5049 33.7939 48.6338C33.7822 48.7568 33.7705 48.877 33.7588 48.9941C33.7529 49.1055 33.7471 49.2109 33.7412 49.3105C33.7412 49.4102 33.7412 49.4893 33.7412 49.5479C33.7412 49.9111 33.7939 50.1689 33.8994 50.3213C34.0107 50.4736 34.1484 50.5498 34.3125 50.5498C34.5176 50.5498 34.7578 50.5059 35.0332 50.418C35.3086 50.3301 35.666 50.1865 36.1055 49.9873L36.3428 50.6377ZM46.0107 51.0684C45.7764 51.2266 45.5391 51.3848 45.2988 51.543C45.0645 51.6953 44.8359 51.833 44.6133 51.9561C44.3965 52.0732 44.1914 52.1699 43.998 52.2461C43.8105 52.3223 43.6465 52.3604 43.5059 52.3604C43.377 52.3604 43.2451 52.3164 43.1104 52.2285C42.9814 52.1406 42.8613 52.0059 42.75 51.8242C42.6387 51.6426 42.5449 51.4141 42.4688 51.1387C42.3984 50.8633 42.3545 50.541 42.3369 50.1719C42.1143 50.4883 41.8711 50.7812 41.6074 51.0508C41.3496 51.3145 41.0801 51.543 40.7988 51.7363C40.5234 51.9297 40.2422 52.082 39.9551 52.1934C39.6738 52.3047 39.4014 52.3604 39.1377 52.3604C38.9678 52.3604 38.792 52.3135 38.6104 52.2197C38.4287 52.1318 38.2617 51.9971 38.1094 51.8154C37.957 51.6338 37.8311 51.4082 37.7314 51.1387C37.6318 50.8691 37.582 50.5557 37.582 50.1982C37.582 50.0225 37.5967 49.8145 37.626 49.5742C37.6553 49.3281 37.6904 49.0703 37.7314 48.8008C37.7725 48.5254 37.8193 48.2441 37.8721 47.957C37.9248 47.6699 37.9717 47.3945 38.0127 47.1309C38.0537 46.8613 38.0889 46.6182 38.1182 46.4014C38.1475 46.1787 38.1621 45.9941 38.1621 45.8477C38.1621 45.7129 38.1533 45.6074 38.1357 45.5312C38.1182 45.4492 38.0918 45.3906 38.0566 45.3555C38.0273 45.3145 37.9893 45.2881 37.9424 45.2764C37.9014 45.2646 37.8545 45.2588 37.8018 45.2588C37.749 45.2588 37.6758 45.2705 37.582 45.2939C37.4941 45.3115 37.4033 45.335 37.3096 45.3643C37.2041 45.3936 37.0898 45.4287 36.9668 45.4697L36.8262 44.8809C37.0723 44.7695 37.3564 44.6494 37.6787 44.5205C38.001 44.3916 38.3145 44.2715 38.6191 44.1602C38.9297 44.0488 39.208 43.958 39.4541 43.8877C39.7061 43.8115 39.8848 43.7734 39.9902 43.7734C40.1602 43.7734 40.2744 43.8291 40.333 43.9404C40.3916 44.0518 40.4209 44.2422 40.4209 44.5117C40.4209 44.6816 40.4033 44.9043 40.3682 45.1797C40.333 45.4492 40.2891 45.7451 40.2363 46.0674C40.1836 46.3896 40.1279 46.7236 40.0693 47.0693C40.0107 47.415 39.9551 47.749 39.9023 48.0713C39.8496 48.3936 39.8057 48.6924 39.7705 48.9678C39.7354 49.2373 39.7178 49.457 39.7178 49.627C39.7178 49.9609 39.7646 50.2129 39.8584 50.3828C39.958 50.5527 40.0664 50.6377 40.1836 50.6377C40.2832 50.6377 40.4092 50.5967 40.5615 50.5146C40.7139 50.4326 40.8867 50.3037 41.0801 50.1279C41.2793 49.9521 41.4932 49.7266 41.7217 49.4512C41.9561 49.1699 42.2051 48.833 42.4688 48.4404C42.5039 48.2002 42.542 47.957 42.583 47.7109C42.6299 47.4648 42.6709 47.2275 42.7061 46.999C42.7412 46.7705 42.7705 46.5566 42.7939 46.3574C42.8232 46.1582 42.8379 45.9883 42.8379 45.8477C42.8379 45.7129 42.8291 45.6074 42.8115 45.5312C42.7998 45.4492 42.7793 45.3906 42.75 45.3555C42.7207 45.3145 42.6855 45.2881 42.6445 45.2764C42.6094 45.2646 42.5654 45.2588 42.5127 45.2588C42.46 45.2588 42.3896 45.2705 42.3018 45.2939C42.2197 45.3115 42.1377 45.335 42.0557 45.3643C41.9561 45.3936 41.8535 45.4287 41.748 45.4697L41.5898 44.8809C41.8359 44.7695 42.1143 44.6494 42.4248 44.5205C42.7412 44.3916 43.0459 44.2715 43.3389 44.1602C43.6377 44.0488 43.9072 43.958 44.1475 43.8877C44.3936 43.8115 44.5693 43.7734 44.6748 43.7734C44.8389 43.7734 44.9473 43.8291 45 43.9404C45.0527 44.0518 45.0791 44.2422 45.0791 44.5117C45.0791 44.6816 45.0615 44.8926 45.0264 45.1445C44.9971 45.3965 44.959 45.6689 44.9121 45.9619C44.8652 46.249 44.8154 46.5508 44.7627 46.8672C44.71 47.1777 44.6602 47.4824 44.6133 47.7812C44.5664 48.0742 44.5254 48.3525 44.4902 48.6162C44.4609 48.8799 44.4463 49.1084 44.4463 49.3018C44.4463 49.835 44.4873 50.207 44.5693 50.418C44.6514 50.6289 44.7656 50.7344 44.9121 50.7344C45.0645 50.7344 45.2051 50.7168 45.334 50.6816C45.4688 50.6406 45.6416 50.5762 45.8525 50.4883L46.0107 51.0684ZM54.1406 44.5293C54.0938 44.5938 54.0352 44.6846 53.9648 44.8018C53.8945 44.9131 53.8184 45.0391 53.7363 45.1797C53.6543 45.3145 53.5693 45.4521 53.4814 45.5928C53.3994 45.7334 53.3174 45.8623 53.2354 45.9795C53.1592 46.0967 53.0889 46.1934 53.0244 46.2695C52.96 46.3398 52.9102 46.375 52.875 46.375C52.7637 46.375 52.6582 46.3398 52.5586 46.2695C52.459 46.1992 52.3623 46.123 52.2686 46.041C52.1807 45.9531 52.0928 45.874 52.0049 45.8037C51.917 45.7334 51.8291 45.6982 51.7412 45.6982C51.5889 45.6982 51.4189 45.7715 51.2314 45.918C51.0439 46.0645 50.8564 46.2695 50.6689 46.5332C50.4814 46.7969 50.3027 47.1074 50.1328 47.4648C49.9629 47.8223 49.8164 48.2119 49.6934 48.6338C49.5703 49.0732 49.4678 49.5361 49.3857 50.0225C49.3096 50.5029 49.2803 50.9775 49.2979 51.4463C49.2041 51.4873 49.0605 51.5518 48.8672 51.6396C48.6738 51.7217 48.4746 51.8096 48.2695 51.9033C48.0645 51.9971 47.8711 52.085 47.6895 52.167C47.5078 52.2549 47.3818 52.3193 47.3115 52.3604L46.96 52.0264C47.0889 51.3994 47.209 50.7754 47.3203 50.1543C47.4316 49.5332 47.5283 48.9473 47.6104 48.3965C47.6982 47.8457 47.7656 47.3506 47.8125 46.9111C47.8594 46.4658 47.8828 46.1113 47.8828 45.8477C47.8828 45.7129 47.8711 45.6074 47.8477 45.5312C47.8301 45.4492 47.8037 45.3906 47.7686 45.3555C47.7393 45.3145 47.7012 45.2881 47.6543 45.2764C47.6133 45.2646 47.5693 45.2588 47.5225 45.2588C47.4639 45.2588 47.3877 45.2705 47.2939 45.2939C47.2061 45.3115 47.1152 45.335 47.0215 45.3643C46.916 45.3936 46.8047 45.4287 46.6875 45.4697L46.5293 44.8809C46.7754 44.7695 47.0566 44.6494 47.373 44.5205C47.6895 44.3916 47.9971 44.2715 48.2959 44.1602C48.6006 44.0488 48.873 43.958 49.1133 43.8877C49.3594 43.8115 49.5352 43.7734 49.6406 43.7734C49.7227 43.7734 49.79 43.7881 49.8428 43.8174C49.8955 43.8408 49.9365 43.8877 49.9658 43.958C50.001 44.0225 50.0244 44.1104 50.0361 44.2217C50.0479 44.333 50.0537 44.4766 50.0537 44.6523C50.0537 44.7168 50.0479 44.8047 50.0361 44.916C50.0303 45.0215 50.0186 45.1416 50.001 45.2764C49.9834 45.4053 49.9658 45.5371 49.9482 45.6719C49.9307 45.8066 49.9131 45.9297 49.8955 46.041C50.1768 45.5781 50.4404 45.2002 50.6865 44.9072C50.9326 44.6084 51.1641 44.377 51.3809 44.2129C51.5977 44.043 51.8027 43.9287 51.9961 43.8701C52.1953 43.8057 52.3887 43.7734 52.5762 43.7734C52.6816 43.7734 52.7959 43.8027 52.9189 43.8613C53.0479 43.9199 53.1797 43.9902 53.3145 44.0723C53.4551 44.1543 53.5957 44.2393 53.7363 44.3271C53.877 44.4092 54.0117 44.4766 54.1406 44.5293Z" fill="black"/>
<path d="M66.2168 49.3281C66.1641 49.5801 66.1025 49.8467 66.0322 50.1279C65.9619 50.4033 65.8945 50.667 65.8301 50.9189C65.7656 51.165 65.7041 51.3848 65.6455 51.5781C65.5928 51.7715 65.5488 51.9121 65.5137 52H57.9023L57.9902 51.3584C58.3711 51.2764 58.6611 51.1885 58.8604 51.0947C59.0654 50.9951 59.1738 50.9043 59.1855 50.8223L60.3809 42.1123C60.3926 42.042 60.3164 41.9541 60.1523 41.8486C59.9883 41.7432 59.7158 41.6494 59.335 41.5674L59.4229 40.9258H63.7031L63.6152 41.5674C63.2344 41.6494 62.9414 41.7402 62.7363 41.8398C62.5312 41.9395 62.4229 42.0303 62.4111 42.1123L61.2861 50.3125C61.2744 50.418 61.2861 50.5117 61.3213 50.5938C61.3564 50.6699 61.4268 50.7344 61.5322 50.7871C61.6436 50.8398 61.793 50.8809 61.9805 50.9102C62.1738 50.9336 62.4199 50.9453 62.7188 50.9453H63.6328C63.8789 50.9453 64.0928 50.9131 64.2744 50.8486C64.4561 50.7842 64.6201 50.6816 64.7666 50.541C64.9189 50.3945 65.0625 50.2041 65.1973 49.9697C65.3379 49.7354 65.4902 49.4453 65.6543 49.0996L66.2168 49.3281ZM71.4375 51.0332C71.1621 51.1973 70.8809 51.3584 70.5938 51.5166C70.3066 51.6748 70.0283 51.8184 69.7588 51.9473C69.4951 52.0703 69.2461 52.1699 69.0117 52.2461C68.7832 52.3223 68.5869 52.3604 68.4229 52.3604C68.2236 52.3604 68.0537 52.2666 67.9131 52.0791C67.7783 51.8975 67.7109 51.6484 67.7109 51.332C67.7109 51.1562 67.7314 50.9189 67.7725 50.6201C67.8135 50.3213 67.8633 49.9932 67.9219 49.6357C67.9805 49.2783 68.0449 48.9062 68.1152 48.5195C68.1855 48.1328 68.25 47.7666 68.3086 47.4209C68.3672 47.0693 68.417 46.7559 68.458 46.4805C68.499 46.2051 68.5195 45.9941 68.5195 45.8477C68.5195 45.7129 68.5107 45.6074 68.4932 45.5312C68.4756 45.4492 68.4521 45.3906 68.4229 45.3555C68.3936 45.3145 68.3555 45.2881 68.3086 45.2764C68.2617 45.2646 68.2119 45.2588 68.1592 45.2588C68.1123 45.2588 68.042 45.2705 67.9482 45.2939C67.8604 45.3115 67.7725 45.335 67.6846 45.3643C67.5791 45.3936 67.4678 45.4287 67.3506 45.4697L67.1924 44.8809C67.4385 44.7695 67.7168 44.6494 68.0273 44.5205C68.3379 44.3916 68.6396 44.2715 68.9326 44.1602C69.2314 44.0488 69.501 43.958 69.7412 43.8877C69.9814 43.8115 70.1572 43.7734 70.2686 43.7734C70.4326 43.7734 70.5586 43.8291 70.6465 43.9404C70.7402 44.0518 70.7871 44.2422 70.7871 44.5117C70.7871 44.6816 70.7666 44.9189 70.7256 45.2236C70.6846 45.5225 70.6318 45.8564 70.5674 46.2256C70.5029 46.5889 70.4326 46.9697 70.3564 47.3682C70.2861 47.7607 70.2188 48.1416 70.1543 48.5107C70.0898 48.874 70.0371 49.208 69.9961 49.5127C69.9551 49.8115 69.9346 50.0459 69.9346 50.2158C69.9346 50.3975 69.9521 50.5293 69.9873 50.6113C70.0283 50.6934 70.0986 50.7344 70.1982 50.7344C70.2861 50.7344 70.3682 50.7285 70.4443 50.7168C70.5264 50.7051 70.6084 50.6875 70.6904 50.6641C70.7725 50.6406 70.8574 50.6113 70.9453 50.5762C71.0391 50.541 71.1475 50.4971 71.2705 50.4443L71.4375 51.0332ZM71.6396 40.9082C71.6396 41.0723 71.6045 41.2422 71.5342 41.418C71.4697 41.5938 71.3701 41.7549 71.2354 41.9014C71.1064 42.0479 70.9453 42.1709 70.752 42.2705C70.5645 42.3643 70.3447 42.4111 70.0928 42.4111C69.7822 42.4111 69.5537 42.3379 69.4072 42.1914C69.2666 42.0391 69.1963 41.8633 69.1963 41.6641C69.1963 41.5059 69.2285 41.3389 69.293 41.1631C69.3633 40.9873 69.4629 40.8262 69.5918 40.6797C69.7266 40.5273 69.8877 40.4014 70.0752 40.3018C70.2686 40.2021 70.4883 40.1523 70.7344 40.1523C71.0449 40.1523 71.2734 40.2285 71.4199 40.3809C71.5664 40.5332 71.6396 40.709 71.6396 40.9082ZM80.6309 39.7305C80.5078 39.8184 80.3467 39.9414 80.1475 40.0996C79.9541 40.2578 79.7578 40.4131 79.5586 40.5654C79.3594 40.7119 79.1748 40.8408 79.0049 40.9521C78.835 41.0635 78.7148 41.1191 78.6445 41.1191C78.5508 41.1191 78.457 41.0664 78.3633 40.9609C78.2754 40.8496 78.1787 40.7295 78.0732 40.6006C77.9736 40.4658 77.8623 40.3457 77.7393 40.2402C77.6221 40.1289 77.4873 40.0732 77.335 40.0732C77.0889 40.0732 76.8809 40.1904 76.7109 40.4248C76.541 40.6533 76.3975 40.9434 76.2803 41.2949C76.1689 41.6465 76.0811 42.0303 76.0166 42.4463C75.9521 42.8623 75.8994 43.2578 75.8584 43.6328L75.8057 44.0459H77.9941L78.2314 44.3535C78.1729 44.4355 78.085 44.5352 77.9678 44.6523C77.8564 44.7695 77.7363 44.8867 77.6074 45.0039C77.4844 45.1152 77.3643 45.2178 77.2471 45.3115C77.1299 45.4053 77.042 45.4668 76.9834 45.4961C76.9189 45.332 76.793 45.2266 76.6055 45.1797C76.4238 45.127 76.1455 45.1006 75.7705 45.1006H75.6826L75.085 50.3037C75.0088 50.9482 74.8418 51.5693 74.584 52.167C74.332 52.7705 74.0244 53.3301 73.6611 53.8457C73.3037 54.3672 72.9082 54.833 72.4746 55.2432C72.0469 55.6592 71.6162 55.999 71.1826 56.2627L70.8223 55.5156C71.1152 55.3516 71.3818 55.1025 71.6221 54.7686C71.8564 54.4346 72.0615 54.0508 72.2373 53.6172C72.4189 53.1895 72.5684 52.7295 72.6855 52.2373C72.8027 51.7451 72.8877 51.2588 72.9404 50.7783L73.5996 45.1006H72.3691L72.167 44.7578L73.3184 44.0459H73.7139C73.7725 43.5771 73.8545 43.126 73.96 42.6924C74.0713 42.2588 74.2148 41.8486 74.3906 41.4619C74.5664 41.0752 74.7861 40.7148 75.0498 40.3809C75.3135 40.041 75.6299 39.7334 75.999 39.458C76.3154 39.2295 76.6406 39.0361 76.9746 38.8779C77.3086 38.7197 77.6572 38.6406 78.0205 38.6406C78.3076 38.6406 78.5889 38.6934 78.8643 38.7988C79.1396 38.8984 79.3916 39.0127 79.6201 39.1416C79.8545 39.2705 80.0596 39.3936 80.2354 39.5107C80.4111 39.6279 80.543 39.7012 80.6309 39.7305ZM80.9912 45.5225C80.6982 45.8623 80.458 46.249 80.2705 46.6826C80.0889 47.1104 79.9834 47.6084 79.9541 48.1768C80.5342 47.9189 80.9941 47.6846 81.334 47.4736C81.6797 47.2627 81.9404 47.0635 82.1162 46.876C82.292 46.6885 82.4062 46.5068 82.459 46.3311C82.5117 46.1553 82.5381 45.9707 82.5381 45.7773C82.5381 45.5078 82.4766 45.3057 82.3535 45.1709C82.2363 45.0303 82.0957 44.96 81.9316 44.96C81.8848 44.96 81.8232 44.9746 81.7471 45.0039C81.6709 45.0273 81.5889 45.0625 81.501 45.1094C81.4131 45.1562 81.3223 45.2148 81.2285 45.2852C81.1406 45.3555 81.0615 45.4346 80.9912 45.5225ZM84.7354 45.3203C84.7354 45.4844 84.7148 45.6572 84.6738 45.8389C84.6387 46.0205 84.5625 46.2109 84.4453 46.4102C84.334 46.6094 84.1699 46.8203 83.9531 47.043C83.7422 47.2598 83.4609 47.4854 83.1094 47.7197C82.7578 47.9482 82.3271 48.1855 81.8174 48.4316C81.3076 48.6777 80.6982 48.9268 79.9893 49.1787C80.0303 49.46 80.0918 49.7148 80.1738 49.9434C80.2559 50.166 80.3525 50.3564 80.4639 50.5146C80.5811 50.667 80.707 50.7871 80.8418 50.875C80.9766 50.957 81.1172 50.998 81.2637 50.998C81.5156 50.998 81.8789 50.8838 82.3535 50.6553C82.8281 50.4268 83.4199 50.0283 84.1289 49.46C84.1641 49.4775 84.2021 49.5156 84.2432 49.5742C84.2842 49.6328 84.3252 49.6973 84.3662 49.7676C84.4072 49.832 84.4424 49.8965 84.4717 49.9609C84.501 50.0195 84.5215 50.0605 84.5332 50.084C84.0527 50.5 83.6162 50.8545 83.2236 51.1475C82.8369 51.4346 82.4795 51.6689 82.1514 51.8506C81.8232 52.0322 81.5186 52.1611 81.2373 52.2373C80.9619 52.3193 80.6924 52.3604 80.4287 52.3604C80.1885 52.3604 79.9219 52.3047 79.6289 52.1934C79.3359 52.0879 79.0605 51.918 78.8027 51.6836C78.5508 51.4434 78.3369 51.1328 78.1611 50.752C77.9912 50.3652 77.9062 49.8936 77.9062 49.3369C77.9062 48.8799 77.9619 48.4434 78.0732 48.0273C78.1846 47.6055 78.3428 47.2041 78.5479 46.8232C78.7588 46.4424 79.0107 46.082 79.3037 45.7422C79.5967 45.3965 79.9277 45.0684 80.2969 44.7578C80.4258 44.6465 80.5869 44.5352 80.7803 44.4238C80.9736 44.3066 81.1816 44.2012 81.4043 44.1074C81.627 44.0078 81.8584 43.9287 82.0986 43.8701C82.3389 43.8057 82.5732 43.7734 82.8018 43.7734C83.1357 43.7734 83.4229 43.8203 83.6631 43.9141C83.9092 44.002 84.1113 44.1191 84.2695 44.2656C84.4277 44.4121 84.5449 44.5791 84.6211 44.7666C84.6973 44.9482 84.7354 45.1328 84.7354 45.3203Z" fill="#59AA33"/>
<g clip-path="url(#clip0)">
<path d="M35.7657 14.2292C30.2259 8.68701 24.1714 7.69682 20.1647 7.8075C20.0463 11.8076 21.0259 17.8506 26.5858 23.413C32.1245 28.9542 38.1777 29.9449 42.1843 29.8344C42.2947 25.8261 41.3046 19.7704 35.7657 14.2292Z" fill="#59AA33"/>
<path d="M46.3065 19.3036C51.9029 13.7047 58.0236 12.7519 62.0287 12.8861C61.9348 10.2399 61.3664 8.51754 61.363 8.47551C61.363 8.47551 50.5682 4.89131 41.2343 14.2292C31.9005 23.5671 35.4836 34.3662 35.4836 34.3662C35.4836 34.3662 37.2162 34.9408 39.8921 35.0302C39.7581 31.0234 40.711 24.9015 46.3065 19.3036Z" fill="white"/>
<path d="M55.6119 28.6129C61.2286 22.9938 62.1707 16.8845 62.0288 12.886C58.0236 12.7518 51.903 13.7046 46.3065 19.3035C40.711 24.9014 39.7581 31.0234 39.892 35.0302C43.8971 35.1642 50.0164 34.2109 55.6119 28.6129Z" fill="#A3ED5C"/>
<path d="M62.3008 8.27654L62.2933 8.25041C62.2166 7.93273 61.9811 7.67192 61.6646 7.56688C61.547 7.52782 58.74 6.61423 54.732 6.89562C51.0424 7.15451 45.5883 8.51945 40.5576 13.5523C35.527 18.5852 34.1627 24.0415 33.9041 27.7325C33.6232 31.7423 34.5364 34.5503 34.5754 34.6679C34.6705 34.9547 34.8955 35.1797 35.1822 35.2749C35.2841 35.3088 37.4076 36.0001 40.5831 36.0001C41.0699 36.0001 41.5817 35.9838 42.1145 35.9465C45.804 35.6877 51.2579 34.3228 56.2886 29.2901C65.1898 20.3849 62.8585 10.2231 62.3008 8.27654ZM54.7839 8.81166C56.7224 8.66766 58.3646 8.83579 59.4829 9.02632C59.4352 9.05916 59.3894 9.09612 59.347 9.13853L52.4724 16.0162V9.1191C53.2288 8.97299 53.9993 8.86997 54.7839 8.81166ZM44.1434 24.3486V13.0316C44.1434 13.0003 44.1417 12.9695 44.1387 12.9389C46.1239 11.4014 48.269 10.2834 50.5583 9.59189V17.9311L44.1434 24.3486ZM35.8134 27.8664C36.1564 22.9713 38.2079 18.6109 41.9111 14.9063C42.0166 14.8008 42.1227 14.6969 42.2294 14.594V26.221C42.2294 26.2347 42.2308 26.2479 42.2314 26.2614L36.0285 32.467C35.8423 31.3687 35.6802 29.7684 35.8134 27.8664ZM42.0626 34.0303C40.136 34.1734 38.5019 34.0081 37.384 33.8189L40.3736 30.8281C40.3768 30.8281 40.3799 30.8285 40.3832 30.8285H51.4171C48.5836 32.7041 45.4521 33.7785 42.0626 34.0303ZM54.9352 27.9359C54.5954 28.2758 54.25 28.6016 53.8992 28.9137H42.2872L47.8418 23.3567H58.4766C57.5969 24.8838 56.4421 26.4283 54.9352 27.9359ZM59.4472 21.4418H49.7557L60.7003 10.4925C60.7412 10.4516 60.7767 10.4075 60.8086 10.3618C61.2056 12.6718 61.4563 16.8713 59.4472 21.4418Z" fill="black"/>
<path d="M31.801 23.2926V12.1667C32.9473 12.9476 34.0443 13.8611 35.089 14.9062C35.4627 15.2801 36.0687 15.2801 36.4425 14.9062C36.8163 14.5323 36.8162 13.9261 36.4425 13.5521C31.4118 8.51927 25.9577 7.15433 22.2681 6.89544C18.2603 6.61423 15.4531 7.52773 15.3355 7.5667C15.019 7.67183 14.7835 7.93264 14.7068 8.25032L14.6993 8.27646C14.1416 10.2231 11.8103 20.3849 20.7116 29.29C23.5356 32.1152 26.7701 34.0791 30.325 35.1267C30.4152 35.1533 30.5063 35.166 30.5959 35.166C31.0093 35.166 31.3907 34.8958 31.5135 34.4789C31.6629 33.9716 31.3729 33.4393 30.866 33.2899C27.6214 32.3336 24.6604 30.5323 22.0652 27.936C19.8031 25.6729 18.3324 23.3268 17.3988 21.0808H26.8836L31.5028 25.702C31.6897 25.889 31.9346 25.9824 32.1795 25.9824C32.4244 25.9824 32.6694 25.889 32.8562 25.702C33.2299 25.3281 33.2299 24.7218 32.8562 24.3479L31.801 23.2926ZM29.887 21.3777L25.2934 16.782V9.28216C26.8926 9.65853 28.4253 10.2355 29.887 11.0106V21.3777ZM22.1342 8.80573C22.5533 8.83513 22.9683 8.87802 23.3794 8.9325V14.8672L17.5984 9.08368C17.5763 9.06166 17.5533 9.04107 17.5297 9.02164C18.6278 8.83503 20.23 8.67198 22.1342 8.80573ZM16.7191 19.1659C15.6361 15.5159 15.8605 12.2974 16.189 10.3759C16.2067 10.397 16.225 10.4179 16.2448 10.4378L24.9693 19.166H16.7191V19.1659Z" fill="black"/>
<path d="M32.0755 30.0256C30.2262 29.4806 28.4704 28.6069 26.8569 27.429C26.4299 27.1173 25.8313 27.2109 25.5197 27.6381C25.2081 28.0652 25.3017 28.6641 25.7286 28.9759C27.5202 30.284 29.4736 31.2551 31.5345 31.8625C31.6248 31.8891 31.7159 31.9018 31.8055 31.9018C32.2189 31.9018 32.6003 31.6316 32.7231 31.2147C32.8725 30.7073 32.5826 30.175 32.0755 30.0256Z" fill="black"/>
<path d="M23.2002 25.4494C22.8265 25.8233 22.8282 26.4313 23.2019 26.8052C23.3889 26.9922 23.6338 27.0856 23.8787 27.0856C24.1236 27.0856 24.3686 26.9922 24.5554 26.8052C24.9291 26.4313 24.9291 25.825 24.5554 25.451L24.552 25.4477C24.1783 25.074 23.5741 25.0756 23.2002 25.4494Z" fill="black"/>
<path d="M37.5495 4.24703V6.9546C37.5495 7.4834 37.9779 7.91204 38.5065 7.91204C39.0351 7.91204 39.4635 7.4834 39.4635 6.9546V4.24703C39.4635 3.71824 39.0351 3.28959 38.5065 3.28959C37.9779 3.28959 37.5495 3.71824 37.5495 4.24703Z" fill="black"/>
<path d="M40.7866 9.23351C40.9735 9.4205 41.2184 9.51395 41.4633 9.51395C41.7082 9.51395 41.9532 9.42041 42.1401 9.23351L44.0914 7.28128C44.4652 6.9074 44.4653 6.30114 44.0914 5.92726C43.7176 5.55328 43.1117 5.55338 42.738 5.92726L40.7866 7.87949C40.4129 8.25337 40.4128 8.85963 40.7866 9.23351Z" fill="black"/>
<path d="M34.2621 5.89557C33.8883 5.52159 33.2824 5.52178 32.9087 5.89557C32.5349 6.26945 32.5348 6.87571 32.9087 7.24959L34.8633 9.20518C35.0502 9.39217 35.2951 9.48562 35.54 9.48562C35.7849 9.48562 36.0299 9.39207 36.2167 9.20518C36.5904 8.8313 36.5905 8.22504 36.2167 7.85116L34.2621 5.89557Z" fill="black"/>
</g>
<defs>
<clipPath id="clip0">
<rect width="49" height="36" fill="white" transform="translate(14)"/>
</clipPath>
</defs>
</svg>
