<svg width="323" height="231" viewBox="0 0 323 231" fill="none" xmlns="http://www.w3.org/2000/svg">
<path d="M140.484 58.1426C137.831 67.4589 127.772 72.5714 118.288 74.5838C108.814 76.5856 98.7455 76.677 90.0527 80.9645C77.6063 87.1144 70.3137 101.654 71.4611 115.482C72.6092 129.319 81.4834 141.938 93.439 149.005C105.395 156.073 120.042 157.856 133.708 155.386C155.745 155.974 179.993 153.196 201.199 147.178C212.703 150.441 227.725 147.276 235.137 137.899C242.549 128.522 243.649 114.623 237.821 104.189C231.972 93.7359 220.743 87.7724 210.907 80.9421C201.071 74.1119 191.427 64.2589 191.888 52.2893" fill="#262626"/>
<path d="M135.73 121.334L140.983 139.761L187.929 135.392L181.869 121.157L176.877 87.5472L143.7 67.3086L135.73 121.334Z" fill="#FFB78F"/>
<path d="M157.945 88.0022C161.946 97.8397 170.28 105.684 180.144 109.563L177.019 88.563L167.127 82.484C164.05 84.3279 161.09 86.1435 157.945 88.0022Z" fill="#262626"/>
<path d="M195.788 89.5845C177.767 108.657 156.9 90.8174 156.9 90.8174L139.304 54.879L138.369 52.953C138.369 52.953 138.366 52.9133 138.361 52.834C138.356 52.7745 138.349 52.6754 138.342 52.5762C138.329 52.3879 138.319 52.1195 138.306 51.7917C138.276 51.2358 138.264 50.5093 138.261 49.6228C138.262 48.9451 138.278 48.1868 138.317 47.347C138.315 47.3172 138.324 47.2967 138.322 47.267C138.325 47.177 138.328 47.0772 138.332 46.9873C138.373 46.0377 138.458 44.9954 138.567 43.8717C139.162 38.1099 140.822 30.5185 145.146 23.9424C149.75 16.9578 157.364 11.1032 169.929 9.8272C170.067 9.80737 170.205 9.78755 170.335 9.78826C170.424 9.78188 170.513 9.77551 170.612 9.75852C171.979 9.64097 173.324 9.6445 174.62 9.78116C175.162 9.83214 175.685 9.90436 176.2 9.99712C176.23 10.0049 176.261 10.0127 176.291 10.0205C176.563 10.0608 176.826 10.1118 177.089 10.1727C177.606 10.2853 178.123 10.4078 178.622 10.5615L178.633 10.5707C179.356 10.7881 180.061 11.0366 180.76 11.3354C187.303 14.0566 192.537 19.9401 196.377 27.3878C196.678 27.9741 196.969 28.5611 197.251 29.1587C197.661 30.0063 198.052 30.885 198.415 31.7758L198.524 32.047C198.657 32.3763 198.79 32.6956 198.914 33.0355C198.962 33.1616 199.012 33.2975 199.061 33.4236C199.121 33.5687 199.181 33.7139 199.232 33.8697C199.529 34.6755 199.817 35.4919 200.084 36.3097C200.314 37.0207 200.545 37.7415 200.756 38.4538C206.357 57.1545 205.015 79.7986 195.788 89.5845Z" fill="#FFB78F"/>
<path d="M184.468 69.6579L184.259 67.431C184.864 67.3779 185.4 67.0805 185.764 66.5961C186.128 66.1118 186.276 65.5234 186.173 64.9229L183.589 50.0919L185.793 49.7053L188.378 64.5363C188.583 65.7372 188.284 66.9842 187.546 67.9535C186.798 68.9236 185.677 69.5517 184.468 69.6579Z" fill="#262626"/>
<path d="M173.677 52.3845C173.778 53.5233 173.21 54.5006 172.399 54.5785C171.587 54.6564 170.848 53.7924 170.737 52.6642C170.636 51.5253 171.204 50.548 172.015 50.4701C172.827 50.3922 173.576 51.2456 173.677 52.3845Z" fill="#262626"/>
<path d="M195.981 50.3032C196.083 51.442 195.515 52.4193 194.703 52.4972C193.891 52.5751 193.152 51.7111 193.042 50.5829C192.94 49.444 193.508 48.4667 194.32 48.3888C195.131 48.3109 195.87 49.165 195.981 50.3032Z" fill="#262626"/>
<path d="M180.56 75.3476C179.078 75.3937 177.579 74.7734 176.555 73.7006C175.531 72.618 174.994 71.092 175.118 69.6185L177.344 69.8083C177.275 70.6601 177.577 71.5452 178.17 72.1704C178.763 72.7957 179.626 73.1526 180.48 73.1214L180.56 75.3476Z" fill="#262626"/>
<path d="M167.723 43.254C167.111 43.4771 166.491 43.7306 166.02 44.1032C165.548 44.4757 165.235 44.9764 165.364 45.3957C165.574 46.0982 166.773 46.2817 167.828 46.2661C170.089 46.2442 172.466 45.7555 174.607 44.895C175.363 44.5919 176.169 44.1557 176.367 43.5834C176.81 42.2562 174.406 42.0791 173.441 42.1082C171.542 42.174 169.53 42.6067 167.723 43.254Z" fill="#262626"/>
<path d="M191.102 40.4484C190.541 40.5482 189.973 40.6885 189.523 40.9498C189.073 41.2111 188.753 41.6127 188.812 42.0171C188.919 42.6772 189.951 43.032 190.868 43.1758C192.844 43.4931 194.962 43.4216 196.913 42.9733C197.609 42.8139 198.357 42.5512 198.582 42.0668C199.109 40.9329 197.039 40.413 196.193 40.294C194.542 40.0631 192.734 40.1424 191.102 40.4484Z" fill="#262626"/>
<path d="M261.672 187.915L59.1841 184.402L59.2011 184.361C59.3442 183.992 70.6446 155.386 80.2064 137.874C80.523 137.283 80.841 136.713 81.1604 136.162C84.0882 130.971 86.8028 126.981 88.919 125.355C97.1472 119.028 136.063 119.437 136.063 119.437C167.269 145.416 181.846 120.97 181.846 120.97C181.846 120.97 184.415 121.225 188.368 121.73C190.159 121.961 192.241 122.24 194.487 122.568C206.1 124.279 222.323 127.326 227.831 131.605C233.55 136.049 245.836 157.919 253.934 173.064C254.381 173.889 254.807 174.695 255.223 175.483C259.048 182.722 261.672 187.915 261.672 187.915Z" fill="#95DC74"/>
<path d="M174.261 64.5981C174.003 64.6165 173.735 64.6257 173.475 64.6144C171.149 64.5712 168.979 63.6301 167.365 61.9619C165.751 60.2936 164.887 58.0936 164.93 55.7689C164.973 53.4443 165.914 51.2747 167.583 49.6609C169.251 48.0472 171.452 47.1826 173.777 47.2258C176.102 47.2689 178.272 48.21 179.886 49.8783C181.5 51.5465 182.365 53.7465 182.322 56.0712C182.279 58.3959 181.337 60.5655 179.669 62.1792C178.186 63.6103 176.283 64.4536 174.261 64.5981ZM173.151 49.4824C171.644 49.5901 170.234 50.2189 169.134 51.2839C167.894 52.4784 167.192 54.0929 167.166 55.8185C167.139 57.5441 167.785 59.1819 168.979 60.4218C170.174 61.6616 171.789 62.3634 173.515 62.3895C175.241 62.4157 176.879 61.7707 178.119 60.5761C179.359 59.3816 180.061 57.7671 180.087 56.0415C180.114 54.3159 179.468 52.678 178.274 51.4382C177.079 50.1983 175.464 49.4966 173.738 49.4704C173.538 49.4647 173.339 49.469 173.151 49.4824Z" fill="white"/>
<path d="M197.416 62.0178C197.159 62.0362 196.89 62.0454 196.63 62.0341C194.305 61.9909 192.135 61.0498 190.521 59.3816C188.907 57.7133 188.042 55.5133 188.085 53.1886C188.129 50.8639 189.07 48.6943 190.738 47.0806C192.407 45.4668 194.607 44.6023 196.933 44.6454C199.258 44.6886 201.428 45.6297 203.042 47.2979C204.656 48.9662 205.521 51.1662 205.477 53.4909C205.434 55.8156 204.493 57.9852 202.824 59.5989C201.342 61.03 199.449 61.8726 197.416 62.0178ZM196.306 46.9021C194.799 47.0098 193.389 47.6386 192.289 48.7035C191.049 49.8981 190.347 51.5125 190.321 53.2382C190.295 54.9638 190.94 56.6016 192.135 57.8415C193.33 59.0813 194.945 59.783 196.671 59.8092C198.397 59.8354 200.035 59.1903 201.275 57.9958C202.515 56.8012 203.217 55.1868 203.243 53.4612C203.269 51.7355 202.624 50.0977 201.429 48.8579C200.234 47.618 198.62 46.9163 196.894 46.8901C196.694 46.8844 196.505 46.888 196.306 46.9021Z" fill="white"/>
<path d="M189.059 53.1561L180.967 53.9517L181.186 56.1774L189.278 55.3819L189.059 53.1561Z" fill="white"/>
<path d="M143.097 43.818L142.14 45.8389L165.558 56.9328L166.515 54.9119L143.097 43.818Z" fill="white"/>
<path d="M196.387 27.3872C192.013 27.2512 187.673 25.7975 184.196 23.1563C180.677 20.4883 178.111 16.6561 176.813 12.4444C175.766 20.9386 171.965 29.1114 166.006 35.2662C158.832 42.6736 148.641 47.0581 138.331 47.2663C138.335 47.1764 138.338 47.0766 138.341 46.9866C138.383 46.0371 138.468 44.9948 138.577 43.871C139.172 38.1093 140.832 30.5178 145.156 23.9418C149.759 16.9571 157.374 11.1026 169.939 9.82657C170.077 9.80674 170.215 9.78692 170.345 9.78762C170.434 9.78125 170.523 9.77488 170.622 9.75788C171.989 9.64034 173.334 9.64387 174.63 9.78053C175.171 9.83151 175.695 9.90373 176.21 9.99649C176.24 10.0043 176.271 10.0121 176.301 10.0199C176.573 10.0602 176.836 10.1112 177.099 10.1721C177.616 10.2847 178.133 10.4072 178.632 10.5608L178.642 10.57C179.366 10.7874 180.071 11.036 180.77 11.3348C187.312 14.046 192.556 19.9288 196.387 27.3872Z" fill="#262626"/>
<path d="M146.904 48.8362C145.309 46.7282 142.422 45.7985 139.812 46.2241C137.201 46.6497 134.877 48.2903 133.283 50.3969C129.631 55.2112 129.879 62.5966 133.862 67.1447C137.835 71.7034 145.119 72.9468 150.388 69.9798" fill="#FFB78F"/>
<path d="M139.636 63.8524C139.149 60.9478 139.678 57.891 141.047 55.2823L137.558 55.6909L137.299 53.4675L143.159 52.77L144.166 54.5813C142.199 57.0434 141.34 60.3629 141.851 63.475L139.636 63.8524Z" fill="#262626"/>
<path d="M154.765 186.055L59.1735 184.393L59.1905 184.352C59.3335 183.983 70.634 155.376 80.1957 137.864C80.5123 137.274 80.8303 136.703 81.1497 136.152C87.0592 135.73 93.0572 137.105 98.1459 140.399C103.318 143.746 107.555 148.794 113.074 151.409C121.77 155.531 132.127 152.918 140.99 156.599C148.673 159.787 154.443 167.884 155.421 176.831C155.751 179.916 155.507 183.053 154.765 186.055Z" fill="#7CCB56"/>
<path d="M255.202 175.474C250.948 178.708 245.465 180.345 240.141 179.758C232.698 178.945 225.883 173.812 223.047 166.89C221.37 162.805 221.039 158.315 220.122 153.997C219.206 149.678 217.523 145.225 213.976 142.599C211.619 140.854 208.695 140.096 206.052 138.81C200.888 136.28 196.851 131.526 195.182 126.016C194.842 124.884 194.6 123.726 194.467 122.56C206.08 124.271 222.302 127.317 227.81 131.597C233.529 136.041 245.815 157.911 253.913 173.056C254.361 173.89 254.788 174.697 255.202 175.474Z" fill="#7CCB56"/>
<path d="M58.9001 198.561C59.59 200.126 60.8096 201.852 62.5136 201.711C63.544 201.627 64.4137 200.828 64.8656 199.899C65.0653 199.486 65.5072 196.186 65.9895 192.056C66.0065 194.526 66.7204 196.986 68.0356 199.074C68.5866 199.952 69.2538 200.781 70.1391 201.315C71.0244 201.85 72.137 202.079 73.1073 201.711C73.9026 201.405 74.5329 200.743 74.9381 199.996C75.3524 199.239 75.6229 198.423 75.7823 197.584C76.193 195.383 76.5294 193.117 76.8446 190.833C76.9317 193.308 77.7143 195.753 79.0869 197.807C79.6669 198.672 80.3617 199.469 81.2562 199.993C82.15 200.507 83.2796 200.696 84.2385 200.308C85.0325 199.983 85.6316 199.302 86.0155 198.538C86.3994 197.773 86.6593 196.947 86.7882 196.101C87.1359 193.854 87.4241 191.612 87.6819 189.361C87.7372 190.972 87.8045 192.611 88.4482 194.089C89.0942 195.597 90.4632 196.905 92.1027 196.977C93.6424 197.046 95.0731 196.007 95.896 194.693C96.7091 193.38 97.0363 191.822 97.3266 190.307C97.6609 188.569 97.9754 186.833 98.27 185.098L56.4213 184.37C56.0261 189.022 57.6763 195.799 58.9001 198.561Z" fill="#CCCCCC"/>
<path d="M103.777 163.142C102.276 160.549 99.5305 158.942 96.7571 157.785C87.8914 154.074 77.6122 153.871 68.6148 157.244C64.0042 158.968 59.7379 161.605 56.1521 164.979C49.8602 170.929 48.2823 175.485 46.0329 184.175L61.2096 184.436C60.8159 189.108 62.476 195.884 63.6899 198.647C64.3797 200.212 65.5993 201.938 67.3033 201.797C68.3338 201.713 69.2035 200.914 69.6546 199.975C69.8544 199.562 70.2963 196.262 70.7786 192.133C70.7956 194.602 71.5095 197.062 72.8247 199.15C73.3757 200.028 74.0428 200.857 74.9281 201.392C75.8141 201.936 76.9261 202.156 77.8963 201.787C78.6917 201.481 79.3121 200.819 79.7271 200.072C80.1322 199.326 80.412 198.499 80.5713 197.661C80.9821 195.459 81.3185 193.193 81.6329 190.899C81.72 193.374 82.5027 195.819 83.8851 197.872C84.4645 198.728 85.16 199.535 86.0538 200.049C86.9475 200.563 88.0772 200.751 89.0361 200.364C89.83 200.038 90.4292 199.358 90.813 198.593C91.1969 197.828 91.4568 197.003 91.5857 196.157C91.9434 193.909 92.2217 191.667 92.4795 189.417C92.534 191.017 92.6119 192.666 93.2451 194.135C93.891 195.643 95.2699 196.95 96.8996 197.023C98.4492 197.091 99.8699 196.053 100.693 194.739C101.506 193.425 101.833 191.868 102.123 190.352C103.208 184.745 104.1 179.101 104.801 173.432C105.23 169.954 105.539 166.185 103.777 163.142Z" fill="#FFB78F"/>
<path d="M67.4123 202.905L67.2331 200.676C67.7685 200.638 68.3139 200.18 68.6453 199.519C68.9513 198.501 69.8677 190.823 71.3599 176.697L73.5887 176.927C71.6234 195.59 71.0243 199.758 70.685 200.449C69.9988 201.863 68.7402 202.8 67.4123 202.905Z" fill="#262626"/>
<path d="M78.3001 202.835L77.5126 200.739C77.9885 200.565 78.4262 200.135 78.752 199.534C79.0862 198.913 79.3355 198.217 79.48 197.45C80.1075 194.097 80.5785 190.506 81.0282 187.036C81.5119 183.345 82.0069 179.534 82.7066 175.936L84.8993 176.358C84.2145 179.884 83.7272 183.665 83.2513 187.326C82.7938 190.826 82.325 194.447 81.6819 197.86C81.4935 198.85 81.1713 199.78 80.7215 200.599C80.1309 201.678 79.281 202.476 78.3001 202.835Z" fill="#262626"/>
<path d="M89.4597 201.41L88.6141 199.339C89.0787 199.146 89.5057 198.707 89.8209 198.097C90.1445 197.466 90.3634 196.763 90.488 195.996C91.0156 192.641 91.3882 189.207 91.7493 185.893C92.1339 182.348 92.5397 178.682 93.1282 175.063L95.3365 175.423C94.7543 178.992 94.3556 182.618 93.9789 186.132C93.6099 189.476 93.2388 192.93 92.7048 196.336C92.5468 197.334 92.2551 198.272 91.8266 199.109C91.2565 200.196 90.4278 201.013 89.4597 201.41Z" fill="#262626"/>
<path d="M226.349 187.3C225.975 191.969 227.631 198.696 228.834 201.44C229.524 203.005 230.743 204.731 232.447 204.59C233.478 204.506 234.347 203.707 234.799 202.778C234.999 202.365 235.441 199.065 235.923 194.936C235.94 197.405 236.654 199.865 237.969 201.954C238.52 202.831 239.187 203.66 240.073 204.195C240.958 204.729 242.071 204.959 243.041 204.59C243.836 204.285 244.467 203.622 244.872 202.875C245.286 202.119 245.557 201.302 245.716 200.464C246.127 198.262 246.463 195.996 246.778 193.712C246.865 196.187 247.648 198.632 249.02 200.686C249.601 201.551 250.295 202.349 251.19 202.873C252.084 203.387 253.213 203.575 254.172 203.188C254.966 202.862 255.565 202.181 255.949 201.417C256.333 200.652 256.593 199.826 256.722 198.98C257.07 196.733 257.358 194.491 257.616 192.241C257.671 193.851 257.738 195.49 258.382 196.969C259.028 198.477 260.397 199.784 262.036 199.856C263.576 199.925 265.007 198.887 265.83 197.572C266.643 196.259 266.97 194.701 267.26 193.186C267.587 191.479 267.903 189.762 268.199 188.047L226.349 187.3Z" fill="#CCCCCC"/>
<path d="M273.726 166.09C272.225 163.497 269.479 161.89 266.706 160.733C257.84 157.022 247.561 156.819 238.563 160.192C233.953 161.916 229.686 164.553 226.101 167.927C219.809 173.877 218.231 178.433 215.982 187.123L231.158 187.384C230.764 192.056 232.425 198.832 233.639 201.595C234.328 203.16 235.548 204.886 237.252 204.745C238.282 204.661 239.152 203.862 239.603 202.923C239.803 202.51 240.245 199.21 240.727 195.081C240.744 197.55 241.458 200.01 242.773 202.098C243.324 202.976 243.991 203.805 244.877 204.34C245.763 204.884 246.875 205.104 247.845 204.735C248.64 204.429 249.261 203.767 249.676 203.02C250.081 202.274 250.361 201.447 250.52 200.609C250.931 198.407 251.267 196.141 251.582 193.847C251.669 196.322 252.451 198.767 253.834 200.82C254.413 201.676 255.109 202.483 256.002 202.997C256.896 203.511 258.026 203.699 258.985 203.312C259.779 202.986 260.378 202.306 260.762 201.541C261.146 200.776 261.405 199.951 261.534 199.105C261.892 196.857 262.17 194.615 262.428 192.365C262.483 193.965 262.561 195.614 263.194 197.083C263.84 198.591 265.219 199.898 266.848 199.971C268.398 200.039 269.819 199.001 270.641 197.687C271.455 196.373 271.782 194.816 272.072 193.3C273.156 187.693 274.049 182.049 274.75 176.38C275.18 172.911 275.478 169.134 273.726 166.09Z" fill="#FFB78F"/>
<path d="M237.352 205.863L237.173 203.634C237.708 203.596 238.253 203.139 238.585 202.477C238.891 201.459 239.807 193.781 241.299 179.655L243.528 179.885C241.563 198.548 240.964 202.716 240.624 203.408C239.937 204.812 238.689 205.748 237.352 205.863Z" fill="#262626"/>
<path d="M248.249 205.793L247.462 203.697C247.938 203.523 248.375 203.093 248.701 202.492C249.035 201.871 249.285 201.175 249.429 200.408C250.057 197.055 250.528 193.464 250.977 189.994C251.461 186.303 251.956 182.492 252.656 178.894L254.848 179.316C254.164 182.842 253.676 186.623 253.2 190.284C252.743 193.784 252.274 197.405 251.631 200.818C251.443 201.808 251.12 202.738 250.671 203.557C250.08 204.636 249.219 205.425 248.249 205.793Z" fill="#262626"/>
<path d="M259.408 204.358L258.563 202.286C259.027 202.094 259.454 201.654 259.769 201.044C260.093 200.413 260.312 199.71 260.437 198.944C260.964 195.588 261.337 192.154 261.698 188.84C262.082 185.295 262.479 181.64 263.077 178.011L265.285 178.371C264.703 181.94 264.304 185.565 263.927 189.079C263.558 192.424 263.187 195.878 262.654 199.294C262.496 200.291 262.204 201.229 261.776 202.067C261.205 203.144 260.366 203.961 259.408 204.358Z" fill="#262626"/>
</svg>
