<svg width="50" height="50" viewBox="0 0 50 50" fill="none" xmlns="http://www.w3.org/2000/svg">
<path d="M39.0375 31.1472C39.2282 28.8381 38.8765 26.5245 37.8541 24.4451C35.2132 19.0729 35.819 18.683 35.737 13.3512C35.737 12.2617 34.8539 11.379 33.7648 11.379C32.6753 11.379 31.7926 12.2617 31.7926 13.3512C31.7926 14.0547 31.7926 33.2567 31.7926 33.1815C31.7926 33.489 31.7598 33.7892 31.6991 34.0788V36.9177C31.6991 39.3099 29.7529 41.2565 27.3607 41.2565C25.7719 41.2565 20.2928 41.2565 16.5647 41.2565C18.2229 43.5629 20.4919 45.3691 23.1252 46.4628C23.1416 46.4693 23.158 46.4762 23.1744 46.483C24.7587 47.1525 25.9683 48.4148 26.6054 49.9452C31.7357 49.6053 36.4244 47.6496 40.1651 44.5802L38.6953 39.1805C38.4855 38.4088 38.4115 37.6066 38.4767 36.8097L39.0375 31.1472Z" fill="#F9CFA9"/>
<path d="M9.23938 11.4484L8.63857 10.8918C7.71274 10.0335 6.25286 10.0892 5.39493 11.0154C4.53701 11.9412 4.5927 13.4011 5.51853 14.259L9.23938 17.7068V11.4484Z" fill="#F9CFA9"/>
<path d="M28.9668 0H12.1001C10.4636 0 9.13229 1.33171 9.13229 2.96822V38.5132C9.13229 40.1497 10.4636 41.4814 12.1001 41.4814H28.9668C30.6033 41.4814 31.935 40.1497 31.935 38.5132V2.96822C31.935 1.33171 30.6033 0 28.9668 0V0Z" fill="#3D4EC6"/>
<path d="M14.8471 2.20108C14.6865 1.96228 14.5927 1.67503 14.5927 1.36566C14.5927 0.758362 14.9543 0.236511 15.4731 0H12.1001C10.461 0 9.13191 1.32904 9.13191 2.96822V38.5132C9.13191 40.1524 10.461 41.481 12.1001 41.481H15.6859V4.80232C15.6859 3.86887 15.3682 2.97585 14.8471 2.20108Z" fill="#2B3894"/>
<path d="M10.8504 18.7478V38.5133C10.8504 39.2037 11.41 39.7633 12.1001 39.7633H28.9668C29.6569 39.7633 30.2165 39.2037 30.2165 38.5133C30.2165 37.835 30.2165 27.9336 30.2165 18.7478H10.8504Z" fill="#E6F7FE"/>
<path d="M10.8504 18.7478V38.5133C10.8504 39.2037 11.41 39.7633 12.1001 39.7633H15.0565V18.7478H10.8504Z" fill="#D5F1FE"/>
<path d="M17.6443 24.7101C17.6443 25.7915 16.7677 26.6681 15.6862 26.6681C14.6047 26.6681 13.7281 25.7915 13.7281 24.7101C13.7281 23.6286 14.6047 22.7516 15.6862 22.7516C16.7677 22.7516 17.6443 23.6286 17.6443 24.7101Z" fill="#3D4EC6"/>
<path d="M17.6443 31.9708C17.6443 33.0522 16.7677 33.9292 15.6862 33.9292C14.6047 33.9292 13.7281 33.0522 13.7281 31.9708C13.7281 30.8893 14.6047 30.0127 15.6862 30.0127C16.7677 30.0127 17.6443 30.8893 17.6443 31.9708Z" fill="#3D4EC6"/>
<path d="M15.465 22.765C14.4876 22.8753 13.7281 23.7034 13.7281 24.7101C13.7281 25.7916 14.6047 26.6682 15.6862 26.6682C16.3606 26.6682 16.955 26.3272 17.3071 25.8084C15.6187 25.9987 14.5437 24.1219 15.465 22.765Z" fill="#2B3894"/>
<path d="M15.465 30.0261C14.4876 30.136 13.7281 30.9645 13.7281 31.9709C13.7281 33.0527 14.6047 33.9293 15.6862 33.9293C16.3606 33.9293 16.955 33.5883 17.3071 33.0695C15.629 33.2583 14.5376 31.3918 15.465 30.0261Z" fill="#2B3894"/>
<path d="M23.6882 23.896H20.908C20.5037 23.896 20.1756 23.5679 20.1756 23.1636C20.1756 22.7588 20.5037 22.4312 20.908 22.4312H23.6882C24.0925 22.4312 24.4206 22.7588 24.4206 23.1636C24.4206 23.5679 24.0925 23.896 23.6882 23.896Z" fill="#11DFEF"/>
<path d="M26.4683 26.989H20.908C20.5033 26.989 20.1756 26.6609 20.1756 26.2566C20.1756 25.8519 20.5033 25.5242 20.908 25.5242H26.4683C26.8727 25.5242 27.2007 25.8519 27.2007 26.2566C27.2007 26.6609 26.8727 26.989 26.4683 26.989Z" fill="#11DFEF"/>
<path d="M23.6882 31.1569H20.908C20.5037 31.1569 20.1756 30.8292 20.1756 30.4244C20.1756 30.0197 20.5037 29.692 20.908 29.692H23.6882C24.0925 29.692 24.4206 30.0197 24.4206 30.4244C24.4206 30.8292 24.0925 31.1569 23.6882 31.1569Z" fill="#11DFEF"/>
<path d="M26.4683 34.2499H20.908C20.5033 34.2499 20.1756 33.9222 20.1756 33.5175C20.1756 33.1131 20.5033 32.785 20.908 32.785H26.4683C26.8727 32.785 27.2007 33.1131 27.2007 33.5175C27.2007 33.9222 26.8727 34.2499 26.4683 34.2499Z" fill="#11DFEF"/>
<path d="M28.9569 1.71851H26.4502C26.2137 1.71851 26.0222 1.91 26.0222 2.14613C26.0222 2.71338 25.5583 3.17725 24.9915 3.17725H16.0563C15.4891 3.17725 15.0252 2.71338 15.0252 2.14613C15.0252 1.91 14.8337 1.71851 14.5972 1.71851H12.0906C11.4001 1.71851 10.8405 2.27812 10.8405 2.9682V18.943H30.2069V2.9682C30.2069 2.27812 29.6473 1.71851 28.9569 1.71851Z" fill="#F948B4"/>
<path d="M15.0565 2.39333C15.0367 2.31398 15.0252 2.23158 15.0252 2.14651C15.0252 1.91 14.8337 1.71851 14.5972 1.71851H12.0906C11.4001 1.71851 10.8405 2.27812 10.8405 2.9682V18.943H15.0565V2.39333Z" fill="#E00E8B"/>
<path d="M28.9571 1.71851H26.4504C26.2139 1.71851 26.0224 1.91 26.0224 2.14613C26.0224 2.71338 25.5586 3.17725 24.9917 3.17725H20.0635L30.2072 15.8924V2.9682C30.2072 2.27812 29.6475 1.71851 28.9571 1.71851Z" fill="#FC7ACD"/>
<path d="M17.375 7.53967H13.9975C13.5931 7.53967 13.265 7.21199 13.265 6.80725C13.265 6.40251 13.5931 6.07483 13.9975 6.07483H17.375C17.7794 6.07483 18.1074 6.40251 18.1074 6.80725C18.1074 7.21161 17.7794 7.53967 17.375 7.53967Z" fill="#FC7ACD"/>
<path d="M12.5798 23.5537C11.8248 24.3681 10.5522 24.417 9.73742 23.662L6.36866 20.5405C5.55384 19.7855 5.50539 18.5129 6.26032 17.6981C7.01525 16.8833 8.28783 16.8349 9.10265 17.5898L12.4714 20.7114C13.2859 21.4663 13.3347 22.7389 12.5798 23.5537Z" fill="#F9CFA9"/>
<path d="M12.4713 20.7116L10.8688 19.2269C11.0797 19.991 10.9046 20.8425 10.3267 21.4662C9.74838 22.0902 8.91258 22.3294 8.13515 22.1776L9.73732 23.6623C10.5521 24.4172 11.8243 24.3684 12.5796 23.5539C13.3346 22.7391 13.2857 21.4665 12.4713 20.7116Z" fill="#FBBC8D"/>
<path d="M12.5798 29.0395C11.8248 29.8543 10.5522 29.9028 9.73742 29.1478L6.36866 26.0263C5.55384 25.2713 5.50539 23.9988 6.26032 23.1843C7.01525 22.3695 8.28783 22.3211 9.10265 23.076L12.4714 26.1976C13.2859 26.9525 13.3347 28.2247 12.5798 29.0395Z" fill="#F9CFA9"/>
<path d="M12.5798 34.5252C11.8248 35.3401 10.5522 35.3885 9.73742 34.6336L6.36866 31.512C5.55384 30.7571 5.50539 29.4845 6.26032 28.6697C7.01525 27.8549 8.28783 27.8064 9.10265 28.5613L12.4714 31.6829C13.2859 32.4378 13.3347 33.7104 12.5798 34.5252Z" fill="#F9CFA9"/>
<path d="M38.6952 39.1804C38.5911 38.7967 38.5205 38.4057 38.4835 38.0112C34.7565 44.13 27.5208 46.9716 20.7242 45.2046C21.4821 45.6917 22.2851 46.1136 23.1251 46.4627C23.1415 46.4696 23.1579 46.4764 23.1743 46.4833C24.7586 47.1524 25.9682 48.4147 26.6053 49.9455C31.7357 49.6056 36.4243 47.6494 40.165 44.5801L38.6952 39.1804Z" fill="#FBBC8D"/>
<path d="M12.4713 26.1973L10.8688 24.7126C11.0797 25.4763 10.9046 26.3278 10.3267 26.9519C9.74838 27.576 8.91258 27.8151 8.13515 27.6633L9.73732 29.1476C10.5521 29.9025 11.8247 29.8541 12.5796 29.0393C13.3346 28.2245 13.2857 26.9523 12.4713 26.1973Z" fill="#FBBC8D"/>
<path d="M12.4713 31.6828L10.8688 30.1981C11.0797 30.9622 10.9046 31.8136 10.3267 32.4374C9.74838 33.0614 8.91258 33.301 8.13515 33.1488L9.73732 34.6335C10.5521 35.3884 11.8247 35.34 12.5796 34.5251C13.3346 33.7103 13.2857 32.4377 12.4713 31.6828Z" fill="#FBBC8D"/>
</svg>
