<svg width="50" height="50" viewBox="0 0 50 50" fill="none" xmlns="http://www.w3.org/2000/svg">
<g clip-path="url(#clip0)">
<path fill-rule="evenodd" clip-rule="evenodd" d="M10.1485 19.4467L13.1061 17.0311C12.0586 16.2269 11.011 15.4198 9.96064 14.6156H8.37226C7.78583 14.6156 7.30478 15.0947 7.30478 15.6822V16.7402C7.30478 18.0892 8.8163 19.4638 10.1485 19.4467Z" fill="#FFBC85"/>
<path fill-rule="evenodd" clip-rule="evenodd" d="M39.238 47.0096C39.6308 46.984 39.85 46.8357 39.85 46.1456V38.1262C39.85 33.3636 34.9396 29.8075 30.6498 28.9433L30.6043 28.9775L20.738 28.6068L10.5243 28.949L10.5186 28.9433C6.2288 29.8074 1.31845 33.3636 1.31845 38.1262V46.1456C1.31845 46.8357 1.54052 46.9841 1.93046 47.0096H39.238Z" fill="#F9F7F7"/>
<path fill-rule="evenodd" clip-rule="evenodd" d="M25.0534 43.0711L22.4175 34.2733L20.4988 33.1012L18.5773 34.2733L15.9414 43.0711C15.9187 43.1481 15.8987 43.151 15.9357 43.2195L17.9341 47.0095H20.4989H23.0637L25.0592 43.2195C25.0961 43.151 25.0762 43.1481 25.0534 43.0711Z" fill="#7BACDF"/>
<path fill-rule="evenodd" clip-rule="evenodd" d="M22.4174 34.2732L23.2372 31.0535L22.8586 29.7159L20.5842 28.6095L18.4635 29.696L17.7917 31.1819L18.5773 34.2732H20.4988H22.4174Z" fill="#3987D0"/>
<path fill-rule="evenodd" clip-rule="evenodd" d="M17.7917 31.1819L20.5842 28.6095C20.5557 28.6095 20.5272 28.6095 20.4988 28.6095C19.1011 26.5933 16.7697 25.3157 14.3615 25.9773C12.9695 27.0353 11.0253 28.5753 10.5185 28.9432L10.5242 28.9489L15.2382 32.4595C16.2402 33.084 15.5399 33.1696 17.077 31.8407L17.7917 31.1819Z" fill="#CECECE"/>
<path fill-rule="evenodd" clip-rule="evenodd" d="M25.9302 32.4596L30.6043 28.9775L30.6498 28.9433C30.1317 28.5668 28.1107 26.967 26.7158 25.9089C23.7866 25.678 21.6688 27.2265 20.5842 28.6096L23.2372 31.0536L24.0912 31.8407C25.6284 33.1697 24.9281 33.0841 25.9302 32.4596Z" fill="#CECECE"/>
<path fill-rule="evenodd" clip-rule="evenodd" d="M22.4174 34.2732L23.2372 31.0535L20.5842 28.6095L19.6249 29.4936L21.3158 31.0535L20.4988 34.2732H22.4174Z" fill="#0067B4"/>
<path fill-rule="evenodd" clip-rule="evenodd" d="M25.0534 43.0712L22.4175 34.2733H20.4988L23.1319 43.0712C23.1575 43.1481 23.1746 43.151 23.1404 43.2195L21.1421 47.0095H23.0636L25.0591 43.2195C25.0961 43.151 25.0762 43.1481 25.0534 43.0712Z" fill="#3987D0"/>
<path fill-rule="evenodd" clip-rule="evenodd" d="M17.9539 31.0335L19.6249 29.4936L20.5842 28.6095C20.5558 28.6095 20.5272 28.6095 20.4988 28.6095C19.6562 28.6095 18.8165 28.4327 17.86 28.0734C16.6047 27.6057 15.4177 26.8728 14.3616 25.9773C13.852 26.3652 13.2685 26.8186 12.7077 27.2549C14.0912 28.889 15.8874 30.2608 17.843 30.9937C17.8799 31.005 17.9169 31.0193 17.9539 31.0335Z" fill="#B5ADB6"/>
<path fill-rule="evenodd" clip-rule="evenodd" d="M23.1575 30.9794C25.1388 30.2294 26.9521 28.8263 28.3384 27.1579C27.7833 26.7244 27.2111 26.2824 26.7158 25.9088C25.6399 26.8357 24.4243 27.5914 23.1376 28.0734C22.2096 28.4185 21.3955 28.5981 20.5842 28.6095L23.1575 30.9794Z" fill="#B5ADB6"/>
<path fill-rule="evenodd" clip-rule="evenodd" d="M38.6459 47.0095H38.6658C38.6602 47.0095 38.6545 47.0095 38.6459 47.0095ZM28.4893 30.5516C32.5258 31.7094 36.7501 35.0889 36.7501 39.5064V47.0095H38.6459H38.6658H39.238C39.6309 46.9839 39.85 46.8356 39.85 46.1455V38.1261C39.85 33.3635 34.9397 29.8074 30.6498 28.9432L30.6043 28.9774L28.4893 30.5516Z" fill="#E2E2E2"/>
<path fill-rule="evenodd" clip-rule="evenodd" d="M26.7158 25.9089C28.7824 24.1265 30.331 21.7195 30.8463 19.4467C30.9686 18.9077 31.0342 18.3772 31.0342 17.861V12.7221V11.9521H29.0984C24.9936 11.9521 24.1396 6.88721 19.1239 6.88721H15.7933C11.9533 6.88721 14.8767 12.7249 10.4588 12.7221H9.96063V17.861C9.96063 18.3772 10.0261 18.9076 10.1485 19.4467C10.6723 21.751 12.2521 24.1893 14.3615 25.9773C15.4176 26.8729 16.6047 27.6058 17.8599 28.0734C18.8164 28.4328 19.6561 28.6096 20.4987 28.6096H20.5841C21.3954 28.5981 22.2095 28.4185 23.1375 28.0734C24.4243 27.5914 25.6397 26.8357 26.7158 25.9089Z" fill="#FFE5C1"/>
<path fill-rule="evenodd" clip-rule="evenodd" d="M30.8462 19.4466C32.1784 19.4636 33.69 18.089 33.69 16.7402V15.6822C33.69 15.0947 33.2117 14.6156 32.6253 14.6156H31.0341L29.7588 16.5862L30.8462 19.4466Z" fill="#FFBC85"/>
<path fill-rule="evenodd" clip-rule="evenodd" d="M10.4588 14.6156C14.8768 14.6156 11.9532 8.77793 15.7934 8.77793H19.1239C24.1396 8.77793 24.9936 13.8428 29.0984 13.8428H31.0342V12.3057V8.8293C31.0342 3.50488 25.1502 0.0142578 20.2028 0H20.1374C17.9142 0.00566406 15.8846 0.718652 14.6776 2.29004C9.58789 2.74063 9.96084 9.52803 9.96084 10.4234V12.1517V14.6156H10.4588Z" fill="#838383"/>
<path fill-rule="evenodd" clip-rule="evenodd" d="M31.034 8.8293C31.034 3.50488 25.1501 0.0142578 20.2027 0H20.1373C17.917 0.00566406 15.8929 0.71582 14.686 2.28145C15.7165 1.77949 16.9348 1.53994 18.2158 1.53428H18.2841C23.2287 1.55137 29.1127 5.04199 29.1127 10.3664V13.8428H31.0341V12.3057V8.8293H31.034Z" fill="#595959"/>
<path fill-rule="evenodd" clip-rule="evenodd" d="M29.0984 13.8428C24.9936 13.8428 24.1396 8.77795 19.1239 8.77795H15.7933C14.2277 8.77795 13.7865 9.74758 13.5132 10.894H18.7395C23.7524 10.894 24.4185 15.6281 28.5233 15.6536C29.0585 15.6565 29.1126 15.7249 29.1154 16.204C29.1183 17.4588 29.1239 17.8381 28.7055 19.1784C28.1162 21.0692 27.1483 23.057 25.5258 24.4572C24.4498 25.384 23.2343 26.1398 21.9475 26.6217C21.0765 26.9468 20.2395 27.1522 19.3088 27.1579C17.5695 27.1579 13.8319 25.1786 12.4826 24.0465C13.0405 24.7395 13.6724 25.3954 14.3614 25.9772C15.4175 26.8727 16.6046 27.6056 17.8599 28.0733C18.8163 28.4327 19.656 28.6094 20.4986 28.6094H20.584C21.3953 28.598 22.2094 28.4183 23.1374 28.0733C24.424 27.5913 25.6395 26.8356 26.7156 25.9087C28.7822 24.1263 30.3309 21.7194 30.8461 19.4465C30.9684 18.9076 31.034 18.3771 31.034 17.8609V14.6155V13.8426H29.0984V13.8428Z" fill="#FED1A3"/>
<path d="M7.99932 47.7641C7.58281 47.7641 7.24512 47.4263 7.24512 47.0096V41.343C7.24512 40.9263 7.58281 40.5885 7.99932 40.5885C8.41582 40.5885 8.75352 40.9263 8.75352 41.343V47.0096C8.75352 47.4263 8.41592 47.7641 7.99932 47.7641Z" fill="#E2E2E2"/>
<path d="M20.4267 24.4354C20.4259 24.4354 20.4251 24.4354 20.4243 24.4354C19.4852 24.4348 18.6041 24.0575 17.9437 23.3729C17.6544 23.0731 17.6629 22.5955 17.9626 22.306C18.2623 22.0166 18.7397 22.0251 19.029 22.325C19.4028 22.7125 19.8988 22.926 20.4254 22.9264H20.4267C20.9542 22.9264 21.4515 22.7126 21.8271 22.3242C22.1167 22.0248 22.5942 22.017 22.8936 22.3067C23.1929 22.5964 23.2007 23.0742 22.9109 23.3736C22.2485 24.0585 21.3663 24.4354 20.4267 24.4354Z" fill="#838383"/>
<path d="M17.1881 17.7343C16.9994 17.7343 16.8105 17.6639 16.6642 17.5224C16.3857 17.2533 15.9346 17.2527 15.6584 17.521C15.3598 17.8114 14.8823 17.8043 14.5919 17.5054C14.3017 17.2065 14.3087 16.7288 14.6075 16.4384C15.4617 15.6084 16.8545 15.6079 17.7123 16.4371C18.0119 16.7266 18.0201 17.2043 17.7307 17.504C17.5826 17.6574 17.3855 17.7343 17.1881 17.7343Z" fill="#838383"/>
<path d="M23.8237 17.7343C23.6264 17.7343 23.4293 17.6572 23.2813 17.504C22.9918 17.2044 23 16.7267 23.2996 16.4371C24.1573 15.6081 25.5501 15.6085 26.4043 16.4385C26.7031 16.7287 26.7102 17.2064 26.42 17.5055C26.1298 17.8044 25.6522 17.8114 25.3535 17.5211C25.0772 17.2527 24.6261 17.2534 24.3477 17.5225C24.2014 17.6639 24.0124 17.7343 23.8237 17.7343Z" fill="#838383"/>
<path fill-rule="evenodd" clip-rule="evenodd" d="M32.3265 47.1892C36.0697 50.9365 42.133 50.9365 45.8734 47.1892C49.6167 43.4419 49.6167 37.3647 45.8734 33.6173C42.133 29.8701 36.0697 29.8701 32.3265 33.6173C28.586 37.3646 28.586 43.4418 32.3265 47.1892Z" fill="#97DA7B"/>
<path fill-rule="evenodd" clip-rule="evenodd" d="M42.4177 47.1893C46.1609 43.4421 46.1609 37.3648 42.4177 33.6175C40.9887 32.1858 39.2209 31.3017 37.3735 30.9624C40.3625 30.4177 43.5621 31.3017 45.8764 33.6175C49.6168 37.3647 49.6168 43.442 45.8764 47.1893C43.5621 49.505 40.3625 50.389 37.3735 49.8444C39.2209 49.5049 40.9887 48.6209 42.4177 47.1893Z" fill="#68CA44"/>
<path d="M42.5556 38.477L39.635 35.551C39.4984 35.4143 39.3098 35.3296 39.1014 35.3296C38.9059 35.3296 38.7283 35.4046 38.5943 35.5267C38.5863 35.5331 38.5776 35.5409 38.5679 35.5507L35.6445 38.4768C35.3501 38.7715 35.3502 39.2492 35.6448 39.5438C35.792 39.6911 35.985 39.7647 36.1779 39.7647C36.371 39.7647 36.5641 39.691 36.7113 39.5437L38.3471 37.9064V44.7225C38.3471 45.1392 38.6847 45.477 39.1013 45.477C39.5179 45.477 39.8555 45.1392 39.8555 44.7225V37.9076L41.4883 39.5435C41.6355 39.691 41.8287 39.7648 42.0219 39.7648C42.2147 39.7648 42.4076 39.6913 42.5548 39.5442C42.8496 39.2496 42.8499 38.7719 42.5556 38.477Z" fill="#F9F7F7"/>
</g>
<defs>
<clipPath id="clip0">
<rect width="50" height="50" fill="white"/>
</clipPath>
</defs>
</svg>
