<svg width="50" height="50" viewBox="0 0 50 50" fill="none" xmlns="http://www.w3.org/2000/svg">
<g clip-path="url(#clip0)">
<path d="M33.3201 12.971C33.8993 11.2533 35.4146 9.97196 37.2606 9.72664L38.5018 6.82097L34.2313 2.55166L31.7139 4.19016C30.7574 3.65148 29.7458 3.23211 28.6952 2.93796L28.0734 0H21.9274L21.3056 2.93796C20.255 3.23211 19.2426 3.65148 18.2869 4.19016L15.7695 2.55166L11.5026 6.81861L12.7201 9.71916C14.5709 9.96606 16.0574 11.3112 16.6524 13.047L16.9355 12.4275C18.3798 9.28719 21.545 7.25806 25 7.25806C28.4243 7.25806 31.5784 9.2612 33.0346 12.363L33.3201 12.971Z" fill="#F0C087"/>
<path d="M31.6225 21.9935L28.225 21.1434V20.7571C29.728 19.708 30.6451 17.975 30.6451 16.129V14.7193C30.6451 11.5864 28.1904 8.96467 25.1733 8.87331C23.6273 8.82409 22.1743 9.39192 21.0693 10.4646C19.9636 11.5372 19.3548 12.9757 19.3548 14.5161V16.129C19.3548 17.975 20.2711 19.7073 21.7742 20.7563V21.1434L18.3775 21.9935C16.5791 22.4428 15.3226 24.0518 15.3226 25.9057V27.33L17.5726 26.8299C18.2211 26.6854 18.8839 26.6129 19.5474 26.6129C20.4885 26.6129 21.4241 26.759 22.32 27.0453L26.012 28.2258C26.4105 28.2258 26.8074 28.2813 27.1902 28.3912L32.2581 29.8387H33.0645L34.6774 28.9893V25.9057C34.6774 24.0518 33.4209 22.4428 31.6225 21.9935Z" fill="#F0C087"/>
<path d="M50 20.9678H48.1878L45.4869 22.3889C45.1829 22.2212 44.8667 22.079 44.5257 21.9936L41.1282 21.1434V20.7571C42.6313 19.7081 43.5484 17.9751 43.5484 16.1291V14.7194C43.5484 11.5865 41.0936 8.96474 38.0765 8.87338C36.5329 8.8281 35.0775 9.39198 33.9726 10.4646C32.8668 11.5373 32.2581 12.9757 32.2581 14.5162V16.1291C32.2581 17.9751 33.1744 19.7073 34.6774 20.7563V21.1434L31.4516 21.951L31.6225 21.9936C32.3695 22.1798 33.0145 22.5744 33.5225 23.0954L36.2903 22.4039V19.8499L35.8879 19.6171C34.6436 18.8977 33.871 17.5605 33.871 16.1291V14.5162C33.871 13.4164 34.3057 12.3878 35.096 11.6219C35.8855 10.8564 36.933 10.4438 38.0281 10.4863C40.1824 10.5509 41.9355 12.45 41.9355 14.7194V16.1291C41.9355 17.5605 41.1621 18.8977 39.917 19.6187L39.5138 19.8518L39.5169 22.4039L43.546 23.4104L32.8653 29.0323H32.3711L27.4131 27.6155C27.0232 27.5049 26.6208 27.4596 26.2168 27.4442L22.5661 26.2775C20.9024 25.7443 19.1016 25.6647 17.3986 26.042L12.8079 27.0622L12.8733 26.8339L12.9032 25.3434L8.65006 22.8622L10.4839 22.4039V19.8499L10.0814 19.6171C8.8371 18.8977 8.06452 17.5605 8.06452 16.1291V14.5162C8.06452 13.4164 8.49924 12.3878 9.28955 11.6219C10.0791 10.8564 11.1289 10.4438 12.2216 10.4863C14.3759 10.5509 16.129 12.45 16.129 14.7194V16.1291C16.129 17.5605 15.3557 18.8977 14.1105 19.6187L13.7073 19.8518L13.7105 22.4039L16.4775 23.0954C16.9863 22.5744 17.6305 22.1798 18.3775 21.9936L18.5484 21.951L15.3218 21.1434V20.7571C16.8248 19.7081 17.7419 17.9751 17.7419 16.1291V14.7194C17.7419 11.5865 15.2871 8.96474 12.27 8.87338C10.7256 8.8281 9.27104 9.39198 8.16611 10.4646C7.06039 11.5373 6.45161 12.9757 6.45161 14.5162V16.1291C6.45161 17.9751 7.36793 19.7073 8.87097 20.7563V21.1434L6.6548 21.6975L2.6379 19.3549H0V36.0655L7.93378 38.7097H9.47896L9.67191 38.034L12.1039 39.4937C12.1436 40.816 13.2041 41.88 14.5252 41.9265C14.5717 43.2421 15.6289 44.2994 16.9445 44.3458C16.991 45.6614 18.0483 46.7187 19.3639 46.7652C19.4119 48.1115 20.5145 49.1936 21.8718 49.1936C22.3759 49.1936 22.8701 49.0365 23.2855 48.7565L23.9998 49.3873C24.4475 49.7815 25.024 50 25.6226 50H25.7718C27.1138 50 28.2057 48.9152 28.2227 47.5775C29.5501 47.5606 30.6251 46.4856 30.642 45.1582C31.9702 45.1413 33.046 44.0647 33.0614 42.7365C34.4018 42.705 35.4839 41.6099 35.4839 40.262C35.4839 40.1809 35.4799 40.1009 35.4717 40.0202L50 32.7566V20.9678ZM1.6129 20.9678H2.20081L8.00072 24.3507L5.07419 36.0565L1.6129 34.9023V20.9678ZM8.19525 37.0968L6.60794 36.568L9.451 25.1969L11.2903 26.2696V26.4999L8.26298 37.0968H8.19525ZM13.7097 39.4185C13.7097 39.1807 13.8058 38.9476 13.9743 38.779L15.3919 37.3614C15.5604 37.1929 15.7935 37.0968 16.0314 37.0968C16.5299 37.0968 16.9355 37.5024 16.9355 38.0009C16.9355 38.2388 16.8394 38.4719 16.6709 38.6404L15.2533 40.058C15.0847 40.2265 14.8516 40.3226 14.6138 40.3226C14.1153 40.3226 13.7097 39.917 13.7097 39.4185ZM16.129 41.8379C16.129 41.6 16.2251 41.3669 16.3937 41.1984L17.8112 39.7808C17.9798 39.6123 18.2129 39.5162 18.4507 39.5162C18.9493 39.5162 19.3548 39.9218 19.3548 40.4203C19.3548 40.6581 19.2588 40.8912 19.0902 41.0598L17.6726 42.4774C17.5041 42.6459 17.271 42.742 17.0331 42.742C16.5346 42.742 16.129 42.3364 16.129 41.8379ZM18.5484 44.2572C18.5484 44.0194 18.6445 43.7863 18.813 43.6177L20.2306 42.2001C20.3991 42.0316 20.6322 41.9355 20.8701 41.9355C21.3686 41.9355 21.7742 42.3411 21.7742 42.8396C21.7742 43.0775 21.6781 43.3106 21.5096 43.4791L20.092 44.8967C19.9235 45.0653 19.6903 45.1613 19.4525 45.1613C18.954 45.1613 18.5484 44.7557 18.5484 44.2572ZM21.8718 47.5807C21.3733 47.5807 20.9677 47.1751 20.9677 46.6766C20.9677 46.4387 21.0638 46.2056 21.2324 46.0371L22.65 44.6195C22.8185 44.451 23.0516 44.3549 23.2894 44.3549C23.788 44.3549 24.1935 44.7605 24.1935 45.259C24.1935 45.4968 24.0975 45.7299 23.9289 45.8985L22.5113 47.3161C22.3428 47.4846 22.1097 47.5807 21.8718 47.5807ZM25.7718 48.3871H25.6226C25.417 48.3871 25.2201 48.3123 25.0669 48.1765L24.4637 47.6445L25.0693 47.0389C25.2855 46.8227 25.4532 46.5655 25.5773 46.2895L26.3105 46.8999C26.5023 47.0597 26.6129 47.2952 26.6129 47.546C26.6129 48.0099 26.2357 48.3871 25.7718 48.3871ZM33.0039 41.1291H32.8645C32.6621 41.1291 32.4644 41.0574 32.3097 40.9275L27.9364 37.2831L26.9031 38.5227L31.15 42.0611C31.341 42.221 31.4516 42.4565 31.4516 42.7073C31.4516 43.1712 31.0744 43.5484 30.6105 43.5484H30.4345C30.2388 43.5484 30.0474 43.4791 29.8966 43.3531L25.5162 39.7032L24.483 40.9428L28.7298 44.4817C28.9216 44.6404 29.0323 44.8759 29.0323 45.1267C29.0323 45.5905 28.655 45.9678 28.1912 45.9678C27.8816 45.9678 27.58 45.8579 27.3426 45.6606L25.5426 44.1604C25.1461 43.35 24.3314 42.7849 23.3773 42.751C23.3308 41.4354 22.2735 40.3781 20.9579 40.3317C20.9114 39.0161 19.8541 37.9588 18.5385 37.9123C18.4913 36.566 17.3887 35.4839 16.0314 35.4839C15.3687 35.4839 14.7201 35.7525 14.2515 36.2211L12.8339 37.6387C12.7493 37.7233 12.6792 37.8194 12.6079 37.9147L10.1307 36.4282L12.3023 28.8275L17.7467 27.6171C19.1749 27.2977 20.6807 27.367 22.0735 27.8128L23.2615 28.1928L19.2339 30.2065C18.3137 30.6677 17.7419 31.5934 17.7419 32.6227V32.7822C17.7419 34.2719 18.954 35.4839 20.4436 35.4839C20.9331 35.4839 21.4147 35.3508 21.8333 35.0984L24.8362 33.2977C25.4395 32.9362 26.2491 33.0153 26.77 33.4839L33.5839 39.6162C33.7662 39.7816 33.871 40.0163 33.871 40.262C33.871 40.7404 33.4823 41.1291 33.0039 41.1291ZM48.3871 31.7596L34.8007 38.5534C34.7566 38.5065 34.7105 38.462 34.6621 38.4187L27.8494 32.2865C27.2524 31.7478 26.4806 31.4517 25.6765 31.4517C25.0886 31.4517 24.5113 31.6115 24.0057 31.9147L21.0016 33.7163C20.8331 33.8179 20.6405 33.871 20.4436 33.871C19.8427 33.871 19.3548 33.3831 19.3548 32.7822V32.6227C19.3548 32.2073 19.5856 31.8348 19.9565 31.6493L24.455 29.4001C25.2248 29.0146 26.1388 28.9284 26.9685 29.167L32.0364 30.6145L33.2638 30.6452L48.3871 22.6854V31.7596Z" fill="#4766D7"/>
</g>
<defs>
<clipPath id="clip0">
<rect width="50" height="50" fill="white"/>
</clipPath>
</defs>
</svg>
