<svg width="50" height="50" viewBox="0 0 50 50" fill="none" xmlns="http://www.w3.org/2000/svg">
<path d="M4.00391 30.8398C3.4375 30.8398 2.89062 30.6836 2.40234 30.3906L0.585938 29.2969V46.1426H7.17773V29.0137L6.10352 30.0098C5.53711 30.5469 4.78516 30.8398 4.00391 30.8398Z" fill="#14748A"/>
<path d="M13.9844 22.6953V46.1523H20.5859V22.0215L17.1973 19.707L13.9844 22.6953Z" fill="#14748A"/>
<path d="M28.3398 26.6699C27.7148 26.6699 27.1094 26.4844 26.5918 26.1328L25.293 25.2441V46.1426H31.8848V24.5898L30.3711 25.918C29.8047 26.4062 29.082 26.6699 28.3398 26.6699Z" fill="#14748A"/>
<path d="M36.9629 46.1523H43.5547V14.4531L36.9629 20.1855V46.1523Z" fill="#14748A"/>
<path d="M39.1699 6.76758L41.8945 9.41406L28.2031 21.2402L17.9395 14.2285C17.2266 13.7402 16.2598 13.8086 15.625 14.4043L3.75 25.4395L0.595703 23.5254V27.8613L3.04687 29.3359C3.75977 29.7656 4.6582 29.668 5.27344 29.1016L17.0801 18.125L27.2949 25.1074C27.9883 25.5859 28.9258 25.5273 29.5605 24.9805L44.5703 12.002L46.8164 14.1797L49.4141 3.84766L39.1699 6.76758Z" fill="#232323"/>
</svg>
