<svg width="50" height="50" viewBox="0 0 50 50" fill="none" xmlns="http://www.w3.org/2000/svg">
<g clip-path="url(#clip0)">
<path d="M45.565 27.4133C45.565 39.8877 35.4515 50.0001 22.9774 50.0001C19.9173 50.0001 17.0002 49.3916 14.3394 48.2888C7.06708 45.2763 1.71048 38.5743 0.603073 30.5177C0.462311 29.503 0.390594 28.4665 0.390594 27.4133C0.390594 14.9381 10.503 4.82568 22.9774 4.82568C35.4515 4.82568 45.565 14.9381 45.565 27.4133Z" fill="#937DE2"/>
<path d="M22.9774 4.82568C21.7831 4.82568 20.6108 4.91914 19.4668 5.09767C30.2742 6.78415 38.5441 16.1321 38.5441 27.4133C38.5441 38.6929 30.275 48.0405 19.4683 49.7277C20.6119 49.9062 21.7834 50.0001 22.9771 50.0001C35.4515 50.0001 45.565 39.8877 45.565 27.4133C45.565 14.9381 35.4515 4.82568 22.9774 4.82568Z" fill="#7570D6"/>
<path d="M48.3849 25.7436L35.487 34.2843C34.568 34.8931 33.4549 35.1346 32.3669 34.9606C31.2763 34.7871 30.1605 35.0251 29.2393 35.6351L27.5131 36.7791L17.8467 22.5301L20.2183 12.2845C20.4025 11.4869 20.4937 10.6786 20.4937 9.87327C20.4937 7.79006 19.8845 5.73394 18.716 3.96888C18.4288 3.53477 18.2915 3.04382 18.2915 2.55897C18.2915 1.73042 18.6935 0.917505 19.4366 0.425409C20.438 -0.237967 21.7651 -0.114752 22.6273 0.72143L24.1638 2.20954C25.9209 3.91433 27.2762 5.98991 28.1273 8.28559L28.9604 10.5286L37.5401 4.86C38.9103 3.95286 40.7639 4.34959 41.639 5.75302C42.4828 7.10495 42.0494 8.89137 40.72 9.77142C40.704 9.7821 40.7028 9.79927 40.7082 9.81224C40.7158 9.82635 40.7318 9.83589 40.7497 9.82826C41.0889 9.6978 41.4436 9.63447 41.7954 9.63447C42.3569 9.63447 42.9134 9.79622 43.3895 10.1041C43.7176 10.3162 44.0083 10.5981 44.2375 10.9444C44.6804 11.6135 44.8124 12.3982 44.6674 13.1276C44.4401 14.2766 43.605 14.8686 43.441 14.98C43.4132 14.9995 43.4055 15.038 43.425 15.067C43.425 15.0677 43.4261 15.0689 43.4269 15.0689C43.4452 15.0948 43.4826 15.1021 43.5093 15.0853C43.7431 15.0285 43.9812 15.0014 44.2192 15.0014C44.8002 15.0014 45.3781 15.1665 45.8695 15.4797C46.2017 15.6922 46.4954 15.973 46.7228 16.3171C47.6147 17.6636 47.2462 19.4787 45.8981 20.3709C45.8649 20.3934 45.8317 20.416 45.7985 20.4373C45.7794 20.4526 45.7737 20.477 45.7836 20.4942C45.7855 20.4984 45.7901 20.5029 45.7943 20.5048C45.8092 20.5167 45.8328 20.5178 45.8523 20.5029C46.6896 20.2176 47.6009 20.3473 48.3341 20.8222C48.6717 21.0389 48.9712 21.3307 49.2081 21.6885C50.1003 23.0363 49.7315 24.8513 48.3849 25.7436Z" fill="#FDD7BD"/>
<path d="M27.6364 39.4832L22.1951 43.0866L14.3395 48.2887C7.06713 45.2759 1.71053 38.575 0.603119 30.5175L9.71949 24.4804L15.2691 20.8049C15.9081 20.3815 16.7702 20.5574 17.1936 21.1975L28.0289 37.5576C28.4523 38.1977 28.2765 39.0583 27.6364 39.4832Z" fill="#87DBFF"/>
<path d="M27.6363 39.4832L22.1951 43.0866L9.71948 24.4804L15.2691 20.8049C15.9081 20.3815 16.7702 20.5574 17.1936 21.1975L28.0289 37.5572C28.4523 38.1977 28.2765 39.0583 27.6363 39.4832Z" fill="#6FC7FF"/>
<path d="M43.3896 10.1036L39.0977 12.4004C38.4888 12.7255 37.7339 12.5557 37.3246 12.0014L40.7082 9.81216C40.7159 9.82628 40.7319 9.83582 40.7498 9.82819C41.0889 9.69772 41.4437 9.6344 41.7954 9.6344C42.3573 9.6344 42.9135 9.79614 43.3896 10.1036Z" fill="#FAC5AA"/>
<path d="M45.8694 15.4797L41.671 17.7247C41.0621 18.0508 40.3072 17.8814 39.8975 17.3272L43.2812 15.1375L43.4273 15.0689C43.4456 15.0948 43.483 15.1021 43.5097 15.0853C43.7435 15.0284 43.9815 15.0013 44.2196 15.0013C44.8006 15.0013 45.3785 15.1665 45.8694 15.4797Z" fill="#FAC5AA"/>
<path d="M48.3345 20.8221L44.6366 22.8005C44.0285 23.1251 43.2739 22.9557 42.8631 22.4014L45.7943 20.5048C45.8096 20.5166 45.8332 20.5177 45.8523 20.5025C46.6896 20.2175 47.601 20.3472 48.3345 20.8221Z" fill="#FAC5AA"/>
</g>
<defs>
<clipPath id="clip0">
<rect width="50" height="50" fill="white"/>
</clipPath>
</defs>
</svg>
