<svg width="50" height="50" viewBox="0 0 50 50" fill="none" xmlns="http://www.w3.org/2000/svg">
<path d="M28.7398 34.7047C28.6125 35.4844 28.4102 36.2375 28.1375 36.9578L30.5836 39.1742C30.2406 39.8961 29.85 40.5898 29.3992 41.2414L26.2586 40.2289C25.7633 40.8344 25.2086 41.3883 24.6031 41.8836L25.6156 45.0242C24.9641 45.475 24.2703 45.8648 23.5484 46.2086L21.332 43.7625C20.6117 44.0352 19.8594 44.2375 19.0789 44.3648L18.3813 47.5961C17.9867 47.6273 17.5906 47.6562 17.1875 47.6562C16.7844 47.6562 16.3883 47.6273 15.993 47.5961L15.2953 44.3648C14.5156 44.2375 13.7625 44.0352 13.0422 43.7625L10.8258 46.2086C10.1039 45.8656 9.41016 45.475 8.75859 45.0242L9.77109 41.8836C9.16563 41.3883 8.61172 40.8336 8.11641 40.2289L4.97578 41.2414C4.525 40.5898 4.13516 39.8961 3.79141 39.1742L6.2375 36.9578C5.96484 36.2375 5.7625 35.4852 5.63516 34.7047L2.40391 34.007C2.37266 33.6117 2.34375 33.2156 2.34375 32.8125C2.34375 32.4094 2.37266 32.0133 2.40391 31.618L5.63516 30.9203C5.7625 30.1406 5.96484 29.3875 6.2375 28.6672L3.79141 26.4508C4.13438 25.7289 4.525 25.0352 4.97578 24.3836L8.11641 25.3961C8.61172 24.7906 9.16641 24.2367 9.77188 23.7414L8.75938 20.6008C9.41094 20.15 10.1047 19.7602 10.8266 19.4164L13.043 21.8625C13.7633 21.5898 14.5156 21.3875 15.2961 21.2602L15.9937 18.0289C16.3883 17.9977 16.7844 17.9688 17.1875 17.9688C17.5906 17.9688 17.9867 17.9977 18.382 18.0289L19.0797 21.2602C19.8594 21.3875 20.6125 21.5898 21.3328 21.8625L23.5492 19.4164C24.2711 19.7594 24.9648 20.15 25.6164 20.6008L24.6039 23.7414C25.2094 24.2367 25.7633 24.7914 26.2586 25.3969L29.3992 24.3844C29.85 25.0359 30.2398 25.7297 30.5836 26.4516L28.1375 28.668C28.4102 29.3883 28.6125 30.1406 28.7398 30.9211L31.9711 31.6187C32.0023 32.0133 32.0312 32.4094 32.0312 32.8125C32.0312 33.2156 32.0023 33.6117 31.9711 34.007L28.7398 34.7047ZM17.1875 25C12.8727 25 9.375 28.4977 9.375 32.8125C9.375 37.1273 12.8727 40.625 17.1875 40.625C21.5023 40.625 25 37.1273 25 32.8125C25 28.4977 21.5023 25 17.1875 25Z" fill="#454A6D"/>
<path d="M39.5773 12.7383C39.4555 13.1422 39.2961 13.5297 39.1 13.8945L40.3336 16.2586C39.9172 16.7852 39.4422 17.2602 38.9156 17.6766L36.5516 16.443C36.1867 16.6398 35.7992 16.7992 35.3953 16.9203L34.5953 19.4672C34.2656 19.5063 33.9328 19.5312 33.5938 19.5312C33.2547 19.5312 32.9219 19.5063 32.593 19.468L31.793 16.9211C31.3891 16.8 31.0016 16.6398 30.6367 16.4438L28.2727 17.6773C27.7461 17.2609 27.2711 16.7859 26.8547 16.2594L28.0883 13.8953C27.8914 13.5305 27.732 13.143 27.6109 12.7391L25.0641 11.9391C25.025 11.6094 25 11.2766 25 10.9375C25 10.5984 25.025 10.2656 25.0633 9.93672L27.6102 9.13672C27.7312 8.73281 27.8914 8.34531 28.0875 7.98047L26.8539 5.61641C27.2703 5.08984 27.7453 4.61484 28.2719 4.19844L30.6359 5.43203C31.0008 5.23516 31.3883 5.07578 31.7922 4.95469L32.5922 2.40781C32.9219 2.36875 33.2547 2.34375 33.5938 2.34375C33.9328 2.34375 34.2656 2.36875 34.5945 2.40703L35.3945 4.95391C35.7984 5.075 36.1859 5.23516 36.5508 5.43125L38.9148 4.19766C39.4414 4.61406 39.9164 5.08906 40.3328 5.61563L39.0992 7.97969C39.2961 8.34453 39.4555 8.73203 39.5766 9.13594L42.1234 9.93594C42.1625 10.2656 42.1875 10.5984 42.1875 10.9375C42.1875 11.2766 42.1625 11.6094 42.1242 11.9383L39.5773 12.7383ZM33.5938 7.8125C31.868 7.8125 30.4688 9.21172 30.4688 10.9375C30.4688 12.6633 31.868 14.0625 33.5938 14.0625C35.3195 14.0625 36.7188 12.6633 36.7188 10.9375C36.7188 9.21172 35.3195 7.8125 33.5938 7.8125Z" fill="#E89D43"/>
<path d="M45.8898 30.368C45.7695 30.8016 45.6 31.2125 45.3828 31.5961L46.1602 33.232C45.807 33.6828 45.4016 34.0883 44.9508 34.4414L43.3148 33.6641C42.932 33.8813 42.5203 34.0508 42.0867 34.1711L41.4789 35.8805C41.1984 35.9148 40.9148 35.9375 40.625 35.9375C40.3352 35.9375 40.0516 35.9148 39.7711 35.8805L39.1633 34.1711C38.7297 34.0508 38.3187 33.8813 37.9352 33.6641L36.2992 34.4414C35.8484 34.0883 35.443 33.6828 35.0898 33.232L35.8672 31.5961C35.65 31.2133 35.4805 30.8016 35.3602 30.3688L33.6508 29.7609C33.6164 29.4797 33.5938 29.1961 33.5938 28.9062C33.5938 28.6164 33.6164 28.3328 33.6508 28.0523L35.3602 27.4445C35.4805 27.0109 35.65 26.6 35.8672 26.2172L35.0898 24.5813C35.443 24.1305 35.8484 23.725 36.2992 23.3719L37.9352 24.1492C38.318 23.932 38.7297 23.7625 39.1633 23.6422L39.7711 21.9328C40.0516 21.8977 40.3352 21.875 40.625 21.875C40.9148 21.875 41.1984 21.8977 41.4789 21.932L42.0867 23.6414C42.5203 23.7617 42.9313 23.9312 43.3148 24.1484L44.9508 23.3711C45.4016 23.7242 45.807 24.1297 46.1602 24.5805L45.3828 26.2164C45.6 26.5992 45.7695 27.0109 45.8898 27.4445L47.5992 28.0523C47.6336 28.3328 47.6562 28.6164 47.6562 28.9062C47.6562 29.1961 47.6336 29.4797 47.5992 29.7602L45.8898 30.368ZM40.625 26.5625C39.3305 26.5625 38.2812 27.6117 38.2812 28.9062C38.2812 30.2008 39.3305 31.25 40.625 31.25C41.9195 31.25 42.9688 30.2008 42.9688 28.9062C42.9688 27.6117 41.9195 26.5625 40.625 26.5625Z" fill="#4AC3ED"/>
<path d="M47.8093 3.9218L43.1366 2.98743L42.2023 7.6593L43.7343 7.96633L44.1554 5.86321C44.9124 7.43821 45.3124 9.17415 45.3124 10.9374C45.3124 13.6312 44.4234 16.164 42.7421 18.2616L43.9616 19.239C45.8405 16.8945 46.8749 13.9468 46.8749 10.9374C46.8749 8.89133 46.4023 6.87415 45.503 5.05383L47.503 5.45383L47.8093 3.9218Z" fill="#454A6D"/>
<path d="M18.5211 10.3851L17.4164 11.4898L18.4781 12.5515C18.0484 12.5242 17.6179 12.5 17.1875 12.5C11.1437 12.5 5.45465 15.1648 1.57965 19.8117L2.77965 20.8125C6.357 16.5226 11.6078 14.0625 17.1875 14.0625C17.5851 14.0625 17.982 14.0851 18.3789 14.1101L17.4164 15.0726L18.5211 16.1773L21.4172 13.2812L18.5211 10.3851Z" fill="#454A6D"/>
</svg>
