<svg width="47" height="46" viewBox="0 0 47 46" fill="none" xmlns="http://www.w3.org/2000/svg">
<path d="M38.625 42.5312H23L26.4465 29.4348C26.5782 28.9341 26.8721 28.4912 27.2821 28.1751C27.6921 27.859 28.1952 27.6875 28.7129 27.6875H39.4909C39.8495 27.6875 40.2034 27.7698 40.5252 27.928C40.847 28.0863 41.1282 28.3163 41.3472 28.6003C41.5661 28.8843 41.717 29.2148 41.7881 29.5663C41.8593 29.9178 41.8488 30.2809 41.7575 30.6277L38.625 42.5312Z" fill="#348ED8"/>
<path d="M36.2813 19.875L38.625 18.3125L32.3922 12.2319L35.5 8.15625L41.9824 13.018C42.8805 13.6916 43.6095 14.5651 44.1116 15.5692C44.6136 16.5734 44.875 17.6806 44.875 18.8033C44.8751 20.0783 44.5381 21.3306 43.8982 22.4334C43.2583 23.5361 42.3383 24.4501 41.2313 25.0826L39.4063 26.125L36.2813 19.875Z" fill="#FCB079"/>
<path d="M12.0626 17.5312L18.3126 15.1875L16.7501 11.2812L26.9063 9.71875L27.6876 5.03125H15.8364C14.7163 5.03118 13.6208 5.35981 12.6857 5.97641C11.7507 6.59301 11.0171 7.47046 10.5759 8.5C10.0237 9.78833 9.96359 11.2345 10.4069 12.5643L12.0626 17.5312Z" fill="#FCB079"/>
<path d="M26.225 5.41211L21.6367 9.2417L23.2839 9.92744L21.5193 13.9766C21.427 14.1894 21.3781 14.4185 21.3756 14.6505C21.3731 14.8825 21.417 15.1126 21.5047 15.3274C21.5924 15.5422 21.7221 15.7373 21.8863 15.9012C22.0505 16.0651 22.2458 16.1945 22.4607 16.2818L24.108 16.9677L21.6373 22.636L28.2262 25.3792L35.2851 9.18369L26.225 5.41211Z" fill="#FDC8A2"/>
<path d="M35.9903 7.56449L32.8145 14.8516L32.2257 11.7373L29.3692 17.0996C29.0853 17.6326 28.6066 18.0354 28.033 18.2241C27.4593 18.4127 26.835 18.3727 26.2901 18.1123L22.461 16.2813C22.2461 16.1941 22.0507 16.0647 21.8865 15.9009C21.7223 15.7371 21.5925 15.542 21.5048 15.3273C21.417 15.1125 21.3732 14.8824 21.3757 14.6504C21.3783 14.4185 21.4272 14.1894 21.5196 13.9766L22.0772 12.6963L22.7843 11.0762L23.2843 9.92777L27.4024 11.6416L31.2364 8.95413C31.3579 8.86899 31.4559 8.7545 31.5213 8.62132C31.5867 8.48814 31.6174 8.34059 31.6105 8.19238C31.6035 8.04417 31.5593 7.90012 31.4817 7.77361C31.4042 7.6471 31.296 7.54224 31.1671 7.46878L26.2247 5.41214C25.7441 5.21524 25.3327 4.88022 25.0426 4.44946C24.7525 4.0187 24.5966 3.51157 24.5948 2.99222C24.5952 2.63489 24.6693 2.28149 24.8126 1.95413C25.1015 1.30588 25.6327 0.796419 26.2924 0.534716C26.9521 0.273014 27.6881 0.279843 28.3429 0.553744L34.1075 2.95316C34.5375 3.1278 34.9282 3.38666 35.2567 3.71452C35.5851 4.04238 35.8447 4.43261 36.0201 4.86227C36.1956 5.29193 36.2833 5.75233 36.2782 6.21639C36.2731 6.68045 36.1752 7.13881 35.9903 7.56449Z" fill="#91563A"/>
<path d="M25.7599 9.02087L26.4665 7.4009L27.8993 8.0259L27.1927 9.64587L25.7599 9.02087Z" fill="#91563A"/>
<path d="M12.0625 17.5312L18.3125 15.1875L20.6562 19.875L30.8125 23L36.2812 19.875L39.4062 26.125L33.1562 30.8125L29.25 42.5312H9.71875L14.4062 24.5625L12.0625 17.5312Z" fill="#4766D7"/>
<path d="M25.7442 13.2218C25.3537 13.4986 24.8837 13.6405 24.4053 13.6261C24.0023 13.6227 23.6032 13.5476 23.2266 13.4044C22.7993 13.249 22.4082 13.0081 22.0771 12.6964L22.7842 11.0763C22.8594 11.2784 23.0723 11.6564 23.7705 11.9406C24.3057 12.1574 24.7031 12.0509 24.7979 11.9777L25.7442 13.2218Z" fill="#FDC8A2"/>
<path d="M0.34375 42.5312H45.6562V45.6562H0.34375V42.5312Z" fill="#91563A"/>
<path d="M3.46875 39.4062H26.9062V42.5312H3.46875V39.4062Z" fill="#CECECC"/>
<path d="M17.9023 42.5312H4.66914C4.32488 42.5312 3.99026 42.4175 3.71726 42.2078C3.44427 41.998 3.24818 41.704 3.15947 41.3714L0.39043 30.9874C0.359455 30.8713 0.343763 30.7516 0.34375 30.6314C0.34375 30.45 0.379482 30.2704 0.448906 30.1028C0.51833 29.9352 0.620087 29.7829 0.748366 29.6546C0.876645 29.5263 1.02893 29.4246 1.19654 29.3552C1.36414 29.2857 1.54378 29.25 1.7252 29.25H15.5125C15.8646 29.2501 16.2064 29.3691 16.4824 29.5877C16.7585 29.8063 16.9525 30.1118 17.0332 30.4546L19.423 40.6108C19.4769 40.8402 19.4783 41.0787 19.4271 41.3087C19.3758 41.5386 19.2732 41.754 19.127 41.9387C18.9807 42.1234 18.7946 42.2726 18.5825 42.3753C18.3705 42.4779 18.1379 42.5312 17.9023 42.5312Z" fill="#DFDFDD"/>
<path d="M10.9074 37.3907C11.478 36.7937 11.4119 35.8045 10.7599 35.1814C10.1079 34.5582 9.11677 34.537 8.54619 35.134C7.97561 35.731 8.04163 36.7201 8.69366 37.3433C9.34568 37.9665 10.3368 37.9877 10.9074 37.3907Z" fill="#F1F1F1"/>
<path d="M35.5 32.375H42.5312V42.5312H35.5V32.375Z" fill="#4766D7"/>
<path d="M44.5205 33.9375H42.5312V35.5H44.5205C44.6145 35.5001 44.7046 35.5375 44.7711 35.6039C44.8375 35.6704 44.8749 35.7605 44.875 35.8545V39.0518C44.8749 39.1457 44.8375 39.2359 44.7711 39.3023C44.7046 39.3688 44.6145 39.4061 44.5205 39.4062H42.5312V40.9688H44.5205C45.0288 40.9682 45.516 40.766 45.8754 40.4066C46.2348 40.0473 46.4369 39.56 46.4375 39.0518V35.8545C46.4369 35.3462 46.2348 34.859 45.8754 34.4996C45.516 34.1402 45.0288 33.9381 44.5205 33.9375Z" fill="#C7483C"/>
</svg>
