<svg width="50" height="50" viewBox="0 0 50 50" fill="none" xmlns="http://www.w3.org/2000/svg">
<path d="M42.1875 1.5625L47.6562 7.8125H45.3125V35.1562H42.6562L39.8438 28.125H39.0625V7.8125H36.7188L42.1875 1.5625Z" fill="#CCD1D9"/>
<path d="M30.4688 14.0625L35.9375 20.3125H33.5938V28.125L31.25 30.4688H27.3438V20.3125H25L30.4688 14.0625Z" fill="#CCD1D9"/>
<path d="M10.1094 24.1719L14.0625 21.0938L10.1562 17.1875L7.07813 21.1406L6.25 20.3125L6.28906 20.1406C6.47656 19.3828 6.71094 18.6406 6.97656 17.9141C7.78125 15.6797 8.9375 13.5859 10.4062 11.7188C10.9688 10.9844 11.5859 10.2891 12.2422 9.63282L13.6797 8.19532C15.8047 6.07031 18.3047 4.41406 21.0312 3.28125C21.4609 3.10156 21.8906 2.94531 22.3281 2.79688L28.4531 8.92188C27.3437 12.1484 25.5156 15.1094 23.0547 17.5703L21.6172 19.0078C20.9609 19.6641 20.2656 20.2813 19.5312 20.8438C17.6641 22.3125 15.5703 23.4688 13.3359 24.2735C12.6094 24.5391 11.8672 24.7735 11.1094 24.961L10.9375 25L10.1094 24.1719Z" fill="#FFEAA7"/>
<path d="M14.0625 21.0938L10.1094 24.1719L7.03125 26.5625L4.6875 24.2188L7.07813 21.1406L10.1562 17.1875L14.0625 21.0938Z" fill="#CCD1D9"/>
<path d="M19.5312 20.8438V28.9062L18.75 29.6875L13.3359 24.2734C15.5703 23.4687 17.6641 22.3125 19.5312 20.8438Z" fill="#FF826E"/>
<path d="M2.34375 11.7188H10.4062C8.9375 13.5859 7.78125 15.6797 6.97656 17.9141L1.5625 12.5L2.34375 11.7188Z" fill="#FF826E"/>
<path d="M29.6875 1.5625C29.6875 4.09375 29.2656 6.57812 28.4531 8.92188L22.3281 2.79688C24.6719 1.98437 27.1562 1.5625 29.6875 1.5625Z" fill="#FF826E"/>
<path d="M17.9688 17.1875C20.1261 17.1875 21.875 15.4386 21.875 13.2812C21.875 11.1239 20.1261 9.375 17.9688 9.375C15.8114 9.375 14.0625 11.1239 14.0625 13.2812C14.0625 15.4386 15.8114 17.1875 17.9688 17.1875Z" fill="#69D6F4"/>
<path d="M33.5938 28.125H39.0625H39.8438L42.6563 35.1562L44.5313 39.8438L48.4375 43.75V48.4375H31.25V43.75L27.3438 39.8438L25.1563 36.5625L31.25 30.4688L33.5938 28.125Z" fill="#D3A06C"/>
<path d="M16.4062 32.8125H22.6562L25.1562 36.5625L27.3438 39.8438L31.25 43.75V48.4375H1.5625V47.6562L16.4062 32.8125Z" fill="#CF9E76"/>
<path d="M17.9688 17.9688C20.5539 17.9688 22.6562 15.8664 22.6562 13.2812C22.6562 10.6961 20.5539 8.59375 17.9688 8.59375C15.3836 8.59375 13.2812 10.6961 13.2812 13.2812C13.2812 15.8664 15.3836 17.9688 17.9688 17.9688ZM17.9688 10.1562C19.6922 10.1562 21.0938 11.5578 21.0938 13.2812C21.0938 15.0047 19.6922 16.4062 17.9688 16.4062C16.2453 16.4062 14.8438 15.0047 14.8438 13.2812C14.8438 11.5578 16.2453 10.1562 17.9688 10.1562Z" fill="black"/>
<path d="M5.53361 19.9547L5.38517 20.5523L6.04064 21.207L3.64845 24.2828L6.9672 27.6016L10.0438 25.2094L10.6992 25.8648L11.2961 25.7156C11.9164 25.5609 12.525 25.3727 13.1274 25.168L18.75 30.7922L20.3125 29.2297V21.2109C20.957 20.6906 21.5836 20.1453 22.1727 19.5562L23.6109 18.1187C28.0336 13.6961 30.4688 7.81641 30.4688 1.5625V0.78125H29.6875C23.4336 0.78125 17.5539 3.21719 13.1313 7.63906L11.693 9.07656C11.1039 9.66562 10.5586 10.2922 10.0383 10.9367H2.02032L0.457825 12.4992L6.08126 18.1227C5.87657 18.7258 5.68829 19.3352 5.53361 19.9547ZM5.72736 24.1539L10.2297 18.3656L12.8844 21.0203L7.09611 25.5219L5.72736 24.1539ZM18.75 28.5828L14.725 24.5586C16.1352 23.9625 17.4836 23.2328 18.75 22.3742V28.5828ZM28.1024 7.46641L23.7828 3.14687C25.4313 2.68672 27.1438 2.41953 28.8922 2.35703C28.8305 4.10625 28.5625 5.81797 28.1024 7.46641ZM12.7977 10.182L14.2359 8.74453C16.507 6.47422 19.1906 4.76875 22.1164 3.68984L27.561 9.13438C26.482 12.0602 24.7766 14.7437 22.5063 17.0148L21.068 18.4523C18.4313 21.0891 15.1625 22.9953 11.5836 24.0117L15.2406 21.1672L10.0828 16.0094L7.23829 19.6672C8.2547 16.0875 10.1617 12.818 12.7977 10.182ZM2.6672 12.5H8.87579C8.0172 13.7664 7.28751 15.1141 6.6922 16.5242L2.6672 12.5Z" fill="black"/>
<path d="M35.9858 30.7476L37.4368 30.1659L38.0717 31.7496L36.6206 32.3313L35.9858 30.7476Z" fill="black"/>
<path d="M38.7117 33.3477L37.2602 33.9273L40.7398 42.6266L44.7602 46.6461L45.8648 45.5414L42.0727 41.7484L38.7117 33.3477Z" fill="black"/>
<path d="M40.3727 27.3438H33.2703L25.2781 35.3359L23.0742 32.0312H16.0828L0.78125 47.3328V49.2188H49.2188V43.4266L45.1977 39.4055L40.3727 27.3438ZM30.4688 47.6562H2.66719L16.7297 33.5938H22.2383L26.6937 40.2773L30.4688 44.0734V47.6562ZM47.6562 47.6562H32.0312V43.4266L27.9508 39.3461L26.1609 36.6617L33.9172 28.9062H39.3148L43.8648 40.2828L47.6562 44.0734V47.6562Z" fill="black"/>
<path d="M13.9625 38.8309L15.0674 37.7261L16.1722 38.8309L15.0674 39.9358L13.9625 38.8309Z" fill="black"/>
<path d="M11.7531 41.0402L12.858 39.9353L13.9628 41.0402L12.858 42.145L11.7531 41.0402Z" fill="black"/>
<path d="M9.54221 43.2498L10.6471 42.1449L11.7519 43.2498L10.6471 44.3546L9.54221 43.2498Z" fill="black"/>
<path d="M7.33281 45.4581L8.43766 44.3533L9.54252 45.4581L8.43766 46.563L7.33281 45.4581Z" fill="black"/>
<path d="M19.6716 35.5817L20.9715 34.7146L21.7358 35.8604L20.436 36.7275L19.6716 35.5817Z" fill="black"/>
<path d="M22.4328 36.9281L21.1328 37.7945L24.35 42.6211L25.2445 43.5375L26.35 42.432L25.607 41.6898L22.4328 36.9281Z" fill="black"/>
<path d="M38.2812 25.7812H39.8437V7.0312H38.4406L42.1875 2.74917L45.9344 7.0312H44.5312V32.0312H46.0937V8.5937H49.3781L42.1875 0.375732L34.9969 8.5937H38.2812V25.7812Z" fill="black"/>
<path d="M44.5312 33.5938H46.0938V35.1562H44.5312V33.5938Z" fill="black"/>
<path d="M34.375 21.0937H37.6594L30.4688 12.8757L23.2781 21.0937H26.5625V30.4687H28.125V19.5312H26.7219L30.4688 15.2492L34.2156 19.5312H32.8125V22.6562H34.375V21.0937Z" fill="black"/>
<path d="M32.8125 24.2188H34.375V25.7812H32.8125V24.2188Z" fill="black"/>
</svg>
