<svg width="32" height="28" viewBox="0 0 32 28" fill="none" xmlns="http://www.w3.org/2000/svg">
<path d="M8.07001 25.1076L1.08043 14.5972C0.184593 13.118 0.653342 11.2013 2.13251 10.2951L16.8721 1.33674C18.3513 0.440906 20.2679 0.909656 21.1742 2.37841L25.0075 8.69091L26.2367 10.8888" fill="#F43735"/>
<path d="M28.2471 27.1181H10.9877C9.2619 27.1181 7.86273 25.7189 7.86273 23.9931V14.0104C7.86273 12.2845 9.2619 10.8854 10.9877 10.8854H28.2471C29.973 10.8854 31.3721 12.2845 31.3721 14.0104V23.9931C31.3721 25.7189 29.973 27.1181 28.2471 27.1181Z" fill="#F9F9F9"/>
<path d="M31.3741 14.4587H7.8624V17.7224H31.3741V14.4587Z" fill="#383838"/>
<path d="M29.2159 21.9672H26.4816" stroke="#303030" stroke-width="0.5" stroke-miterlimit="10" stroke-linecap="round" stroke-linejoin="round"/>
<path d="M29.2159 23.139H26.4816" stroke="#303030" stroke-width="0.5" stroke-miterlimit="10" stroke-linecap="round" stroke-linejoin="round"/>
<path d="M29.2159 24.3544H26.4816" stroke="#303030" stroke-width="0.5" stroke-miterlimit="10" stroke-linecap="round" stroke-linejoin="round"/>
<path d="M17.7602 19.3521C16.6222 19.3521 15.6468 20.0385 15.2185 21.0187C14.7903 20.0385 13.8149 19.3521 12.6769 19.3521C11.1441 19.3521 9.90167 20.5946 9.90167 22.1272C9.90167 23.6599 11.1441 24.9024 12.6769 24.9024C13.8149 24.9024 14.7903 24.2158 15.2185 23.2356C15.6468 24.2158 16.6222 24.9024 17.7602 24.9024C19.2929 24.9024 20.5353 23.6599 20.5353 22.1272C20.5353 20.5946 19.2929 19.3521 17.7602 19.3521Z" fill="#FFC601"/>
<path d="M28.2471 27.1181H10.9877C9.2619 27.1181 7.86273 25.7189 7.86273 23.9931V14.0104C7.86273 12.2845 9.2619 10.8854 10.9877 10.8854H28.2471C29.973 10.8854 31.3721 12.2845 31.3721 14.0104V23.9931C31.3721 25.7189 29.973 27.1181 28.2471 27.1181Z" stroke="#303030" stroke-width="0.5" stroke-miterlimit="10" stroke-linecap="round" stroke-linejoin="round"/>
<path d="M31.3741 14.4587H7.8624" stroke="#303030" stroke-width="0.5" stroke-miterlimit="10" stroke-linecap="round" stroke-linejoin="round"/>
<path d="M31.3741 17.7224H7.8624" stroke="#303030" stroke-width="0.5" stroke-miterlimit="10" stroke-linecap="round" stroke-linejoin="round"/>
<path d="M8.85085 26.2738L8.84085 26.2638" stroke="#303030" stroke-width="0.5" stroke-miterlimit="10" stroke-linecap="round" stroke-linejoin="round"/>
<path d="M8.07001 25.1076L1.08043 14.5972C0.184593 13.118 0.653342 11.2013 2.13251 10.2951L16.8721 1.33674C18.3513 0.440906 20.2679 0.909656 21.1742 2.37841L25.0075 8.69091L26.2367 10.8888" stroke="#303030" stroke-width="0.5" stroke-miterlimit="10" stroke-linecap="round" stroke-linejoin="round"/>
<path d="M2.99251 15.1417C2.99251 15.1417 0.960636 12.9251 2.83856 11.4769L8.85584 7.80261" stroke="#303030" stroke-width="0.5" stroke-miterlimit="10" stroke-linecap="round" stroke-linejoin="round"/>
<path d="M10.206 7.03021L10.8338 6.58313" stroke="#303030" stroke-width="0.5" stroke-miterlimit="10" stroke-linecap="round" stroke-linejoin="round"/>
<path d="M24.5845 10.8854L22.887 8.14624" stroke="#303030" stroke-width="0.5" stroke-miterlimit="10" stroke-linecap="round" stroke-linejoin="round"/>
<path d="M12.6617 24.8872C14.186 24.8872 15.4217 23.6515 15.4217 22.1272C15.4217 20.6029 14.186 19.3672 12.6617 19.3672C11.1374 19.3672 9.90167 20.6029 9.90167 22.1272C9.90167 23.6515 11.1374 24.8872 12.6617 24.8872Z" fill="#F43735"/>
</svg>
