<svg width="50" height="50" viewBox="0 0 50 50" fill="none" xmlns="http://www.w3.org/2000/svg">
<path d="M43.941 3.32998C40.5847 11.5982 38.8983 19.5922 37.5658 28.4755C32.9646 28.1325 30.8573 27.8757 26.3058 27.0991C27.1163 18.1518 27.3725 9.98302 26.071 1.14543C33.7865 -0.789482 36.9071 -0.408012 43.941 3.32998Z" fill="#3EA69B"/>
<path d="M35.3906 27.2598C32.699 26.9719 31.3894 26.8117 28.7069 26.4429C28.8155 25.4426 28.2319 24.5526 27.4017 24.4447C27.9526 17.3869 28.1177 10.9701 27.6621 3.92604C28.882 3.57824 29.848 2.63128 29.7899 1.66143C34.0599 0.831865 36.2571 1.10042 40.2069 2.93473C39.9213 3.86257 40.6352 5.01491 41.7373 5.64652C39.6271 12.3769 38.2673 18.6481 37.1305 25.6339C36.2996 25.5386 35.5224 26.2623 35.3906 27.2598Z" fill="#44C4A1"/>
<path d="M34.0252 10.4021C36.6067 10.7177 38.2505 13.0544 37.8587 15.0231C37.4668 16.9918 35.3827 18.1991 33.1215 17.9227C30.8606 17.6464 29.1227 15.9718 29.2082 13.9656C29.2938 11.9595 31.444 10.0867 34.0252 10.4021Z" fill="#3EA69B"/>
<path d="M34.9552 2.6613C35.5263 2.73109 35.9269 3.19923 35.8559 3.66625C35.7849 4.13327 35.2927 4.42929 34.7508 4.36306C34.2091 4.29684 33.8013 3.89075 33.843 3.42027C33.8845 2.94959 34.3843 2.59152 34.9552 2.6613Z" fill="#3EA69B"/>
<path d="M32.3941 23.9681C32.0132 23.9223 31.6586 24.266 31.6021 24.7357C31.5456 25.2055 31.8086 25.6234 32.1896 25.6692C32.5705 25.7151 32.9251 25.3714 32.9816 24.9016C33.0381 24.4319 32.7751 24.0139 32.3941 23.9681Z" fill="#3EA69B"/>
<path d="M36.9966 15.0028C36.7559 14.9437 36.6354 14.9153 36.3938 14.861C36.1759 15.6679 35.7582 16.3455 35.1513 16.9204C34.9108 16.6042 34.7895 16.4464 34.5435 16.1328C35.0107 15.6806 35.329 15.1995 35.4906 14.6721C34.8457 14.5476 34.5218 14.4943 33.8717 14.4071C33.6334 15.0832 33.3768 15.5688 33.0991 15.8653C32.8213 16.1616 32.4504 16.2851 31.9802 16.2456C31.5097 16.2062 31.1424 15.9972 30.8694 15.6131C30.5969 15.2291 30.4638 14.7473 30.4746 14.1576C30.3052 14.155 30.2204 14.1541 30.0505 14.1537C30.0644 13.922 30.071 13.8061 30.0838 13.5745C30.2589 13.5736 30.3462 13.5737 30.5208 13.5752C30.6093 12.908 30.8616 12.2755 31.2986 11.6814C31.6098 11.9236 31.763 12.0486 32.0646 12.3047C31.7555 12.6969 31.5545 13.129 31.4534 13.5984C32.0958 13.6249 32.4166 13.6471 33.0556 13.7114C33.0568 13.7002 33.0573 13.6946 33.0586 13.6836C33.2898 12.9896 33.5599 12.4902 33.8679 12.1909C34.1766 11.8911 34.5922 11.7781 35.1031 11.8693C35.6146 11.9605 35.9994 12.2413 36.2499 12.6879C36.5012 13.1345 36.5808 13.6672 36.502 14.2866C36.7421 14.3424 36.8623 14.3716 37.1016 14.4325C37.0591 14.6603 37.0382 14.7745 36.9966 15.0028ZM31.5474 14.8457C31.6587 15.0095 31.8065 15.0976 31.9923 15.1115C32.1777 15.1253 32.3304 15.0756 32.451 14.9622C32.5716 14.849 32.7008 14.624 32.8391 14.2881C32.2569 14.232 31.9648 14.2115 31.3799 14.1851C31.3798 14.4622 31.4358 14.6818 31.5474 14.8457ZM35.4782 13.3526C35.3746 13.1569 35.2219 13.0394 35.0217 13.0042C34.8219 12.969 34.6533 13.0107 34.5178 13.1275C34.3823 13.2451 34.2393 13.4812 34.0901 13.8359C34.6989 13.9214 35.0024 13.9732 35.6065 14.0933C35.6245 13.7961 35.5821 13.5492 35.4782 13.3526Z" fill="#44C4A1"/>
<path d="M49.2547 10.4995C43.7124 17.1816 39.8163 24.2039 35.9949 32.2027C31.7764 30.2169 29.8733 29.212 25.827 26.8302C29.177 18.5821 31.7815 10.8776 33.118 1.97314C40.9182 2.90719 43.736 4.39624 49.2547 10.4995Z" fill="#3EA69B"/>
<path d="M34.3056 30.2583C31.8632 29.0133 30.6805 28.3884 28.2701 27.0694C28.6616 26.1538 28.3716 25.0939 27.6238 24.6918C30.1833 18.1538 32.1953 12.0885 33.8065 5.2007C35.052 5.30843 36.2324 4.75271 36.4586 3.80615C40.7055 4.55343 42.6897 5.60181 45.8653 8.77635C45.3287 9.55892 45.6651 10.9162 46.5165 11.9163C42.5886 17.5796 39.4976 23.0755 36.409 29.3336C35.6568 28.9431 34.7179 29.3536 34.3056 30.2583Z" fill="#44C4A1"/>
<path d="M37.9031 13.6758C40.2343 14.9076 41.1005 17.7305 40.1631 19.4683C39.2256 21.2062 36.9205 21.6074 34.8787 20.5285C32.8371 19.4497 31.6909 17.225 32.3518 15.3409C33.0126 13.4569 35.5723 12.4442 37.9031 13.6758Z" fill="#3EA69B"/>
<path d="M41.016 6.62236C41.5317 6.89488 41.7721 7.48611 41.5704 7.90624C41.3687 8.32637 40.8211 8.43155 40.3318 8.17296C39.8427 7.91458 39.5775 7.37991 39.7528 6.94585C39.9279 6.51158 40.5005 6.34994 41.016 6.62236Z" fill="#3EA69B"/>
<path d="M32.4499 26.0312C32.7955 26.2138 32.9208 26.7088 32.7304 27.1358C32.5402 27.563 32.108 27.7627 31.7654 27.5816C31.4229 27.4006 31.2974 26.9063 31.4848 26.4777C31.672 26.049 32.1044 25.8486 32.4499 26.0312Z" fill="#3EA69B"/>
<path d="M39.36 19.138C39.1512 18.9949 39.0464 18.9244 38.8353 18.7854C38.3974 19.4771 37.8092 19.9733 37.0735 20.3032C36.9393 19.9147 36.871 19.7204 36.7311 19.3323C37.3003 19.0691 37.7382 18.7246 38.0425 18.2794C37.4733 17.9281 37.1848 17.7604 36.6 17.443C36.1807 18.0023 35.7995 18.3734 35.453 18.5562C35.1065 18.739 34.7228 18.7231 34.2928 18.516C33.8627 18.3087 33.5786 17.9768 33.4335 17.5118C33.289 17.047 33.3035 16.5392 33.4843 15.9802C33.326 15.9166 33.2468 15.8853 33.0875 15.8237C33.1675 15.6074 33.2072 15.4993 33.2863 15.2828C33.4509 15.345 33.5328 15.3766 33.6962 15.441C33.9723 14.836 34.3921 14.3231 34.9742 13.9137C35.196 14.257 35.3036 14.4316 35.5126 14.7847C35.1089 15.0476 34.7953 15.3877 34.5647 15.7993C35.1599 16.056 35.4544 16.193 36.0355 16.4846C36.0398 16.4744 36.042 16.4692 36.0463 16.4591C36.4641 15.88 36.8622 15.5007 37.2378 15.3262C37.6142 15.1512 38.0368 15.1932 38.49 15.4644C38.9435 15.7358 39.2233 16.1426 39.3291 16.6591C39.4356 17.176 39.3562 17.7131 39.103 18.2759C39.3122 18.4158 39.4164 18.487 39.6235 18.6313C39.5177 18.8336 39.4651 18.9351 39.36 19.138ZM34.292 17.0238C34.3491 17.2204 34.4622 17.3577 34.6325 17.4379C34.8026 17.5179 34.9601 17.5255 35.1062 17.4609C35.2522 17.3963 35.4384 17.228 35.6655 16.9573C35.1354 16.6938 34.8672 16.5691 34.326 16.3329C34.2457 16.5973 34.2347 16.8272 34.292 17.0238ZM38.4127 17.0156C38.3721 16.7915 38.2628 16.6244 38.0851 16.5185C37.9077 16.4128 37.7374 16.3919 37.5766 16.4546C37.4154 16.518 37.2128 16.6917 36.9702 16.9765C37.5167 17.2775 37.7866 17.4363 38.3187 17.7688C38.4216 17.4916 38.4533 17.2406 38.4127 17.0156Z" fill="#44C4A1"/>
<path d="M41.2918 24.4427C41.2918 22.5333 39.7776 20.9854 37.9101 20.9854H37.6804C34.4503 20.6843 31.8932 20.7929 30.1021 20.9854H29.6524V21.0372C28.0159 21.2397 27.1357 21.4968 27.1357 21.4968L26.9561 16.2836L24.5848 16.7851C23.233 17.0875 22.0057 17.7954 21.0671 18.8143L15.8919 24.4321C14.6042 25.83 12.7902 26.6253 10.8895 26.6253H10.2349L7.6778 45.1922L14.1557 45.2489C23.3611 48.8856 34.4415 47.6063 34.4415 47.6063H35.3935C37.2611 47.6063 38.7751 46.0583 38.7751 44.1491C38.7751 42.758 37.9695 41.5619 36.8111 41.0134H37.045C38.9126 41.0134 40.4266 39.4654 40.4266 37.5562C40.4266 36.1839 39.6425 35.0018 38.5093 34.4435C40.0905 34.1538 41.2918 32.7435 41.2918 31.0436C41.2918 29.4938 40.2943 28.1823 38.9197 27.7432C40.2942 27.304 41.2918 25.9925 41.2918 24.4427Z" fill="#FCD462"/>
<path d="M11.5985 23.6561H0.745361V49.9999H11.5985V23.6561Z" fill="#27A2DB"/>
<path d="M6.17188 47.7474C7.22325 47.7474 8.07556 46.8951 8.07556 45.8438C8.07556 44.7924 7.22325 43.9401 6.17188 43.9401C5.1205 43.9401 4.26819 44.7924 4.26819 45.8438C4.26819 46.8951 5.1205 47.7474 6.17188 47.7474Z" fill="#1C75A1"/>
</svg>
