<svg width="50" height="50" viewBox="0 0 50 50" fill="none" xmlns="http://www.w3.org/2000/svg">
<path d="M36.2903 22.1772V22.7432C36.2903 23.4366 36.4021 24.1255 36.6213 24.7833L37.9032 28.6288H40.3225V19.7578H38.7096C37.3735 19.7579 36.2903 20.841 36.2903 22.1772Z" fill="#5A4146"/>
<path d="M47.3324 23.8526L45.9677 28.629L39.5161 22.9839C38.6253 22.9839 37.9032 22.2617 37.9032 21.371C37.9032 20.0349 38.9864 18.9517 40.3225 18.9517H45.9677C46.8585 18.9517 47.5805 19.6738 47.5805 20.5646V22.0804C47.5806 22.6797 47.497 23.2762 47.3324 23.8526Z" fill="#694B4B"/>
<path d="M44.3543 31.0488H39.5156V34.6181H44.3543V31.0488Z" fill="#E6AF78"/>
<path d="M39.5161 32.5297C40.2641 32.8336 41.0797 33.0047 41.9355 33.0047C42.7912 33.0047 43.6068 32.8336 44.3548 32.5297V31.0483H39.5161V32.5297Z" fill="#D29B6E"/>
<path d="M48.2452 34.1163L44.3546 33.0047L41.9354 34.6101L39.5161 33.0046L35.6257 34.1163C34.587 34.413 33.871 35.3624 33.871 36.4425V42.3386C33.871 42.784 34.232 43.1451 34.6774 43.1451H49.1935C49.6389 43.1451 50 42.784 50 42.3386V36.4425C50 35.3623 49.2839 34.413 48.2452 34.1163Z" fill="#D5DCED"/>
<path d="M42.7419 43.145H41.129L41.5323 34.6176H42.3387L42.7419 43.145Z" fill="#AFB9D2"/>
<path d="M41.9355 31.8549C39.2631 31.8549 37.0968 29.6885 37.0968 27.0162V26.0714C37.0968 25.6436 37.2667 25.2334 37.5692 24.9308L39.0316 23.4684C39.3412 23.1588 39.7647 22.9807 40.2024 22.9945C42.7803 23.0759 45.0621 23.6281 46.3095 24.8464C46.6149 25.1446 46.7742 25.5618 46.7742 25.9886V27.0162C46.7742 29.6886 44.6078 31.8549 41.9355 31.8549Z" fill="#F0C087"/>
<path d="M39.5161 26.2714C39.5161 25.3411 40.2974 24.6016 41.2258 24.6608C42.8538 24.7647 45.2697 25.0368 46.7518 25.7497C46.7034 25.4094 46.5573 25.0882 46.3095 24.8463C45.0621 23.628 42.7803 23.0757 40.2024 22.9944L40.2023 22.9945V22.9944C39.7647 22.9806 39.3411 23.1588 39.0316 23.4683L37.5693 24.9306C37.2667 25.2331 37.0968 25.6433 37.0968 26.0712V27.016C37.0968 29.2226 38.5754 31.0805 40.5948 31.6624C39.9227 30.8331 39.5162 29.7803 39.5162 28.6289L39.5161 26.2714Z" fill="#E6AF78"/>
<path d="M46.7742 38.8456C46.7742 38.2039 47.0291 37.5885 47.4828 37.1348L49.5587 35.059C49.8361 35.4555 50 35.933 50 36.4427V42.3387C50 42.7842 49.6389 43.1452 49.1935 43.1452H46.7742V38.8456Z" fill="#C7CFE2"/>
<path d="M42.3387 36.2304H41.5323C41.3096 36.2304 41.129 36.0499 41.129 35.8272V34.6176H42.7419V35.8272C42.7419 36.0499 42.5614 36.2304 42.3387 36.2304Z" fill="#959CB5"/>
<path d="M41.9355 34.6102L40.5686 35.6542C40.3332 35.8341 39.9927 35.7621 39.8504 35.5021L38.6243 33.2628L39.1178 32.51C39.2273 32.343 39.4606 32.3146 39.607 32.4503L41.9355 34.6102Z" fill="#C7CFE2"/>
<path d="M41.9355 34.6102L43.3024 35.6544C43.5379 35.8343 43.8783 35.7622 44.0206 35.5022L45.2468 33.263L44.7532 32.5101C44.6438 32.3431 44.4104 32.3147 44.2641 32.4505L41.9355 34.6102Z" fill="#C7CFE2"/>
<path d="M14.4358 31.518C13.7466 29.692 13.2 26.5531 13.082 24.9188C12.8574 21.8088 10.5137 19.2737 7.34556 19.2737C4.17739 19.2737 1.83374 21.8089 1.60913 24.9188C1.49106 26.553 0.944483 29.692 0.255323 31.518C0.103467 31.9206 0.27876 32.3644 0.675147 32.5441C1.41362 32.8788 2.98814 33.5344 4.88706 33.7898H9.80396C11.694 33.5338 13.2795 32.8778 14.0159 32.5441C14.4124 32.3644 14.5876 31.9206 14.4358 31.518Z" fill="#5A4146"/>
<path d="M14.0159 32.5442C14.4122 32.3645 14.5876 31.9207 14.4356 31.5181C13.7466 29.6922 13.1999 26.5532 13.0819 24.9189C12.8574 21.809 10.5137 19.2738 7.3456 19.2738C7.3376 19.2738 7.32969 19.2738 7.32168 19.2739C4.89072 19.2838 4.03164 22.5991 6.12431 23.8361C6.25 23.9104 6.33056 23.9462 6.33056 23.9462L8.16348 33.7899H9.804C11.694 33.5337 13.2796 32.8778 14.0159 32.5442Z" fill="#694B4B"/>
<path d="M13.1787 35.4091L10.5689 34.1043C10.0225 33.831 9.67725 33.2724 9.67734 32.6615L9.67754 30.2421H4.83867V32.6616C4.83867 33.2725 4.49355 33.8309 3.94707 34.1042L1.3373 35.4091C0.517676 35.8188 0 36.6565 0 37.5728V42.3386C0 42.784 0.361035 43.1451 0.806445 43.1451H13.7097C14.1551 43.1451 14.5161 42.784 14.5161 42.3386V37.5729C14.5161 36.6565 13.9983 35.8188 13.1787 35.4091Z" fill="#E6AF78"/>
<path d="M7.25815 33.4677C8.12651 33.4677 8.95825 33.2887 9.72075 32.9701C9.70073 32.8684 9.67739 32.7673 9.67739 32.6614L9.67758 30.2419H4.83872V32.6615C4.83872 32.768 4.81538 32.8696 4.79517 32.9716C5.55815 33.2886 6.3895 33.4677 7.25815 33.4677Z" fill="#D29B6E"/>
<path d="M13.1787 35.4089L11.3195 34.4793C10.4574 35.8106 8.96221 36.6935 7.25811 36.6935C5.554 36.6935 4.05869 35.8106 3.19658 34.4792L1.3374 35.4089C0.517773 35.8187 0 36.6564 0 37.5727V42.3385C0 42.7839 0.361035 43.145 0.806445 43.145H13.7097C14.1551 43.145 14.5161 42.7839 14.5161 42.3385V37.5728C14.5161 36.6564 13.9983 35.8187 13.1787 35.4089Z" fill="#D5DCED"/>
<path d="M7.25809 31.8548C4.79793 31.8548 2.76668 30.0189 2.45955 27.6424C2.41502 27.2981 2.58055 26.9605 2.89051 26.8041C3.2618 26.6168 3.80135 26.301 4.31795 25.8401C4.89324 25.3268 5.23074 24.7855 5.42137 24.3881C5.58553 24.0459 5.96287 23.8524 6.33065 23.9462C9.1701 24.6705 11.1032 26.1477 11.8046 26.7508C11.9929 26.9127 12.1013 27.1515 12.082 27.3992C11.8866 29.8923 9.80154 31.8548 7.25809 31.8548Z" fill="#F0C087"/>
<path d="M11.8046 26.7507C11.1033 26.1476 9.1701 24.6703 6.33065 23.9461C5.96287 23.8523 5.58553 24.0458 5.42137 24.388C5.27703 24.689 5.03846 25.0724 4.68445 25.4638C4.68436 25.4648 4.68406 25.4655 4.68397 25.4665C4.5741 25.591 4.45711 25.7158 4.31805 25.8401C3.80145 26.3011 3.2619 26.6168 2.89061 26.8041C2.58065 26.9605 2.41522 27.2982 2.45965 27.6425C2.73553 29.7768 4.40565 31.4756 6.52459 31.7996C5.55906 31.1428 4.83885 30.2395 4.83885 28.6291V27.4791C5.02205 27.3439 5.20653 27.209 5.39188 27.0436C5.84012 26.6436 6.23143 26.181 6.5452 25.6829C8.71737 26.3608 10.19 27.4898 10.7483 27.9698C10.9012 28.1038 11.2805 28.4534 11.7242 28.8698C11.9151 28.4103 12.0414 27.9173 12.0819 27.3992C12.1013 27.1515 11.9929 26.9127 11.8046 26.7507Z" fill="#E6AF78"/>
<path d="M0.491602 36.119C0.180957 36.5313 0 37.0371 0 37.5727V42.3385C0 42.784 0.361035 43.145 0.806445 43.145H3.22578V39.0815C3.22578 38.5916 3.00303 38.1281 2.62041 37.822L0.491602 36.119Z" fill="#C7CFE2"/>
<path d="M36.5863 34.3083L29.8387 31.8546L25.0001 33.4676L20.1614 31.8547L13.4138 34.3084C12.139 34.772 11.2904 35.9835 11.2904 37.34V42.3386C11.2904 42.7839 11.6514 43.145 12.0969 43.145H37.9033C38.3487 43.145 38.7097 42.7839 38.7097 42.3386V37.34C38.7097 35.9834 37.8612 34.7719 36.5863 34.3083Z" fill="#FF507D"/>
<path d="M24.1552 35.0806L23.3871 43.1449H26.6129L25.8448 35.0806H24.1552Z" fill="#707487"/>
<path d="M25.8467 36.1885H24.1533C23.8415 36.1885 23.5887 35.9358 23.5887 35.624V33.4677H26.4111V35.624C26.4112 35.9357 26.1585 36.1885 25.8467 36.1885Z" fill="#5B5D6E"/>
<path d="M37.8416 35.1421C38.3861 35.7266 38.7096 36.505 38.7096 37.3399V42.3386C38.7096 42.784 38.3486 43.145 37.9032 43.145H33.871V40.4489C33.871 39.5934 34.2108 38.7728 34.8158 38.168L37.8416 35.1421Z" fill="#D23C69"/>
<path d="M33.871 15.2235V8.46763C33.871 7.57681 33.1489 6.85474 32.2581 6.85474H22.5807C19.0176 6.85474 16.129 9.74321 16.129 13.3064V15.2235C16.129 16.0903 16.2688 16.9514 16.5429 17.7737L16.8114 18.5791C16.8936 18.8257 16.9355 19.084 16.9355 19.3441V19.758H33.0645V19.3441C33.0645 19.084 33.1064 18.8257 33.1886 18.5791L33.4571 17.7737C33.7313 16.9513 33.871 16.0902 33.871 15.2235Z" fill="#5A4146"/>
<path d="M20.1613 10.1309C20.1613 11.9403 21.6281 13.4071 23.4374 13.4071H23.891L24.11 19.7579H33.0644V19.344C33.0644 19.0839 33.1063 18.8256 33.1885 18.579L33.457 17.7736C33.7311 16.9513 33.8708 16.0902 33.8708 15.2234V8.46763C33.8708 7.57681 33.1487 6.85474 32.2579 6.85474H23.4374C21.6281 6.85474 20.1613 8.32153 20.1613 10.1309Z" fill="#694B4B"/>
<path d="M29.8389 26.21H20.1611V33.4678H29.8389V26.21Z" fill="#E6AF78"/>
<path d="M20.1614 28.9365C21.586 29.7618 23.2353 30.2418 25 30.2418C26.7648 30.2418 28.4142 29.7618 29.8387 28.9365V26.2096H20.1613L20.1614 28.9365Z" fill="#D29B6E"/>
<path d="M25 33.4676L22.428 36.0397C22.0823 36.3854 21.5109 36.3464 21.2154 35.957L18.5485 32.4429L19.246 30.9729C19.4519 30.5391 19.9888 30.3801 20.3976 30.6321L25 33.4676Z" fill="#D23C69"/>
<path d="M25 33.4676L27.5721 36.0397C27.9178 36.3854 28.4892 36.3464 28.7847 35.957L31.4516 32.4429L30.754 30.9729C30.5481 30.5391 30.0112 30.3801 29.6024 30.6321L25 33.4676Z" fill="#D23C69"/>
<path d="M25 28.629C20.5461 28.629 16.9354 25.0184 16.9354 20.5645V19.6197C16.9354 19.1919 17.1053 18.7817 17.4078 18.4791L18.0759 17.8111C18.3783 17.5086 18.5482 17.0984 18.5482 16.6705V14.7373C18.5482 14.3639 18.799 14.0395 19.1624 13.9536C21.0697 13.5032 27.005 12.4361 31.0441 15.4068C31.3064 15.5996 31.4514 15.9165 31.4514 16.2421V16.6705C31.4514 17.0983 31.6214 17.5085 31.9238 17.8111L32.5919 18.4791C32.8943 18.7816 33.0642 19.1918 33.0642 19.6197V20.5645C33.0645 25.0184 29.4539 28.629 25 28.629Z" fill="#F0C087"/>
<path d="M31.0442 15.4069C28.2034 13.3175 24.4299 13.2271 21.7742 13.5131C20.654 13.6337 19.7284 13.8202 19.1626 13.9538C18.7992 14.0396 18.5484 14.364 18.5484 14.7374V16.6706C18.5484 17.0984 18.3785 17.5086 18.076 17.8112L17.4079 18.4792C17.1053 18.7818 16.9354 19.192 16.9354 19.6199V20.5646C16.9354 24.688 20.0321 28.0826 24.0255 28.5646C22.634 27.1155 21.7741 25.1517 21.7741 22.9839V17.0893C21.7741 16.272 22.3818 15.589 23.1927 15.4873C25.128 15.2447 28.6727 15.0988 31.4514 16.6707V16.2422C31.4516 15.9166 31.3063 15.5997 31.0442 15.4069Z" fill="#E6AF78"/>
<path d="M12.1585 35.1421C11.6139 35.7266 11.2904 36.505 11.2904 37.3399V42.3386C11.2904 42.784 11.6514 43.145 12.0968 43.145H16.1291V40.4489C16.1291 39.5934 15.7892 38.7728 15.1842 38.168L12.1585 35.1421Z" fill="#D23C69"/>
</svg>
