<svg width="50" height="50" viewBox="0 0 50 50" fill="none" xmlns="http://www.w3.org/2000/svg">
<path d="M28.5569 36.02C28.4271 35.7604 28.2276 35.5422 27.9808 35.3896C27.7339 35.2371 27.4495 35.1563 27.1593 35.1562H22.8407C22.5505 35.1563 22.2661 35.2371 22.0192 35.3896C21.7724 35.5422 21.5729 35.7604 21.4431 36.02L20.3125 38.2812H29.6875L28.5569 36.02Z" fill="#E6AF78"/>
<path d="M22.7387 38.2813H29.6875L28.5208 35.9479C26.9694 37.4468 24.8959 38.2836 22.7387 38.2813Z" fill="#F0C087"/>
<path d="M25 30.4688C32.7665 30.4688 39.0625 24.1728 39.0625 16.4062C39.0625 8.63975 32.7665 2.34375 25 2.34375C17.2335 2.34375 10.9375 8.63975 10.9375 16.4062C10.9375 24.1728 17.2335 30.4688 25 30.4688Z" fill="#FBBC8D"/>
<path d="M19.2183 29.229C21.8219 30.401 24.7204 30.7531 27.5289 30.2385C30.3373 29.7239 32.9228 28.367 34.9417 26.3481C36.9606 24.3291 38.3175 21.7437 38.8321 18.9352C39.3467 16.1268 38.9946 13.2282 37.8227 10.6246C36.4685 15.0049 34.0662 18.9887 30.8243 22.2306C27.5823 25.4726 23.5985 27.8748 19.2183 29.229Z" fill="#F0C087"/>
<path d="M33.3649 23.6664L32.2601 24.7712L34.3754 26.8865C34.7637 26.5389 35.1326 26.17 35.4802 25.7817L33.3649 23.6664Z" fill="#EC8B29"/>
<path d="M25.7812 2.3657C25.5226 2.35152 25.2622 2.34375 25 2.34375C24.7378 2.34375 24.4774 2.35152 24.2188 2.3657V5.46875H25.7812V2.3657Z" fill="#EC8B29"/>
<path d="M14.5198 7.03086L16.6351 9.14616L17.7399 8.04133L15.6246 5.92603C15.2363 6.27368 14.8674 6.64252 14.5198 7.03086Z" fill="#EC8B29"/>
<path d="M10.9594 17.1875H14.0625V15.625H10.9594C10.9453 15.8837 10.9375 16.144 10.9375 16.4062C10.9375 16.6685 10.9453 16.9288 10.9594 17.1875Z" fill="#EC8B29"/>
<path d="M14.5198 25.7817C14.8674 26.17 15.2363 26.5389 15.6246 26.8865L17.7399 24.7712L16.6351 23.6664L14.5198 25.7817Z" fill="#EC8B29"/>
<path d="M29.1094 17.9688H46.0938C46.5082 17.9688 46.9056 17.8041 47.1986 17.5111C47.4917 17.2181 47.6563 16.8207 47.6563 16.4062V3.90625C47.6563 3.49185 47.4917 3.09442 47.1986 2.8014C46.9056 2.50837 46.5082 2.34375 46.0938 2.34375H35.1563C34.3275 2.34375 33.5326 2.67299 32.9465 3.25904C32.3605 3.84509 32.0313 4.63995 32.0313 5.46875V13.5144C32.0313 13.8692 31.9105 14.2134 31.6889 14.4905L29.0332 17.8101C29.0217 17.8245 29.0145 17.8418 29.0124 17.86C29.0103 17.8783 29.0135 17.8968 29.0214 17.9134C29.0294 17.93 29.0419 17.944 29.0574 17.9538C29.073 17.9636 29.091 17.9688 29.1094 17.9688Z" fill="#0071AF"/>
<path d="M47.3326 27.8014L45.6361 26.1049C45.491 25.9598 45.3188 25.8447 45.1292 25.7662C44.9396 25.6876 44.7364 25.6472 44.5312 25.6472C44.3261 25.6472 44.1229 25.6876 43.9333 25.7662C43.7437 25.8447 43.5715 25.9598 43.4264 26.1049L42.1372 27.3941C42.0654 27.2564 41.9733 27.1304 41.8639 27.0202L41.7299 26.8861C41.5113 26.6676 41.2329 26.5188 40.9298 26.4585C40.6267 26.3982 40.3126 26.4291 40.0271 26.5474C39.7415 26.6657 39.4975 26.8659 39.3258 27.1229C39.1541 27.3798 39.0625 27.6819 39.0625 27.991V29.8215C39.0625 30.2359 38.8979 30.6334 38.6049 30.9264L37.5 32.0313L40.625 35.1563L42.5111 33.2702C42.6562 33.1251 42.8284 33.01 43.018 32.9314C43.2076 32.8529 43.4108 32.8125 43.616 32.8125H43.884C44.2984 32.8125 44.6959 32.6479 44.9889 32.3549L47.3326 30.0111C47.4777 29.866 47.5928 29.6938 47.6714 29.5042C47.7499 29.3146 47.7903 29.1114 47.7903 28.9063C47.7903 28.7011 47.7499 28.4979 47.6714 28.3083C47.5928 28.1187 47.4777 27.9465 47.3326 27.8014Z" fill="#FDA5A3"/>
<path d="M25 19.5312H25C24.2818 19.5312 23.5707 19.6727 22.9072 19.9475C22.2437 20.2224 21.6408 20.6252 21.133 21.133C20.6252 21.6408 20.2224 22.2437 19.9475 22.9072C19.6727 23.5707 19.5312 24.2818 19.5313 25V28.2035C19.5313 29.6539 20.1074 31.0449 21.133 32.0705L21.5514 32.4889C21.9017 32.8392 22.1795 33.255 22.3691 33.7127C22.5587 34.1704 22.6563 34.6609 22.6562 35.1562H27.3437C27.3437 34.6609 27.4413 34.1704 27.6309 33.7127C27.8205 33.255 28.0983 32.8392 28.4486 32.4889L28.867 32.0705C29.8926 31.0449 30.4687 29.6539 30.4687 28.2035V25C30.4687 24.2818 30.3273 23.5707 30.0525 22.9072C29.7776 22.2437 29.3748 21.6408 28.867 21.133C28.3592 20.6252 27.7563 20.2224 27.0928 19.9475C26.4293 19.6727 25.7182 19.5312 25 19.5312Z" fill="#FDA5A3"/>
<path d="M36.7188 31.25L30.1451 37.8236C29.8521 38.1166 29.4547 38.2812 29.0403 38.2812H20.9597C20.5453 38.2812 20.1479 38.1166 19.8549 37.8236L13.2812 31.25L8.59375 35.9375L15.9486 43.2924C16.0937 43.4374 16.2088 43.6097 16.2873 43.7993C16.3658 43.9888 16.4063 44.192 16.4062 44.3972V48.4375H33.5938V44.3972C33.5937 44.192 33.6342 43.9888 33.7127 43.7993C33.7912 43.6097 33.9063 43.4374 34.0514 43.2924L41.4062 35.9375L36.7188 31.25Z" fill="#F0C087"/>
<path d="M25.7812 17.1875H17.1875V15.625H24.2188V7.03125H25.7812V17.1875Z" fill="#BDECDC"/>
<path d="M39.0625 13.2812H37.5V7.8125C37.5 7.1909 37.7469 6.59476 38.1865 6.15522C38.626 5.71568 39.2221 5.46875 39.8438 5.46875C40.4654 5.46875 41.0615 5.71568 41.501 6.15522C41.9406 6.59476 42.1875 7.1909 42.1875 7.8125V8.59375H40.625V7.8125C40.625 7.6053 40.5427 7.40659 40.3962 7.26007C40.2497 7.11356 40.051 7.03125 39.8438 7.03125C39.6365 7.03125 39.4378 7.11356 39.2913 7.26007C39.1448 7.40659 39.0625 7.6053 39.0625 7.8125V13.2812Z" fill="#CBE2EF"/>
<path d="M41.501 29.7822L41.3115 29.5927C41.1901 29.4713 41.1219 29.3067 41.1219 29.1351C41.1219 28.9634 41.1901 28.7988 41.3115 28.6774C41.389 28.5998 41.4494 28.5069 41.4886 28.4045C41.5279 28.3022 41.5452 28.1927 41.5395 28.0832C41.5305 27.9684 41.5535 27.8533 41.6061 27.7508C41.6587 27.6483 41.7388 27.5625 41.8374 27.5029L42.1171 27.3412C42.2075 27.2881 42.3096 27.2578 42.4144 27.2531C42.5192 27.2484 42.6235 27.2693 42.7184 27.3141C42.8132 27.3589 42.8957 27.4261 42.9587 27.51C43.0217 27.5939 43.0632 27.6919 43.0797 27.7955C43.1305 28.1554 43.097 28.5222 42.9819 28.867C42.8668 29.2117 42.6732 29.525 42.4163 29.7822C42.295 29.9036 42.1303 29.9718 41.9587 29.9718C41.787 29.9718 41.6224 29.9036 41.501 29.7822Z" fill="#EC9090"/>
<path d="M11.3951 30.9264C11.1021 30.6334 10.9375 30.2359 10.9375 29.8215V27.991C10.9375 27.6819 10.8459 27.3798 10.6742 27.1229C10.5025 26.8659 10.2584 26.6657 9.97294 26.5474C9.68743 26.4291 9.37326 26.3982 9.07016 26.4585C8.76707 26.5188 8.48866 26.6676 8.27014 26.8861L8.1361 27.0202C8.02673 27.1304 7.93461 27.2564 7.86284 27.3941L6.5736 26.1049C6.42851 25.9598 6.25626 25.8447 6.06669 25.7662C5.87712 25.6876 5.67393 25.6472 5.46874 25.6472C5.26355 25.6472 5.06037 25.6876 4.8708 25.7662C4.68123 25.8447 4.50898 25.9598 4.36389 26.1049L2.66735 27.8014C2.52226 27.9465 2.40716 28.1187 2.32864 28.3083C2.25012 28.4979 2.2097 28.7011 2.2097 28.9063C2.2097 29.1114 2.25012 29.3146 2.32864 29.5042C2.40716 29.6938 2.52226 29.866 2.66735 30.0111L5.0111 32.3549C5.30413 32.6479 5.70155 32.8125 6.11595 32.8125H6.38403C6.58922 32.8125 6.7924 32.8529 6.98198 32.9314C7.17155 33.01 7.3438 33.1251 7.48889 33.2702L9.37499 35.1563L12.5 32.0313L11.3951 30.9264Z" fill="#FDA5A3"/>
<path d="M19.5313 25V28.2035C19.5313 29.6539 20.1074 31.0449 21.133 32.0705L21.5514 32.4889C21.8705 32.8084 22.1296 33.1826 22.3164 33.5938H27.6836C27.8704 33.1826 28.1295 32.8084 28.4486 32.4889L28.867 32.0705C29.8926 31.0449 30.4687 29.6539 30.4687 28.2035V25C30.4687 24.2818 30.3273 23.5707 30.0525 22.9072C29.7776 22.2437 29.3748 21.6408 28.867 21.133C28.3592 20.6252 27.7563 20.2224 27.0928 19.9475C26.4293 19.6727 25.7182 19.5312 25 19.5312H25C24.2818 19.5312 23.5707 19.6727 22.9072 19.9475C22.2437 20.2224 21.6408 20.6252 21.133 21.133C20.6252 21.6408 20.2224 22.2437 19.9475 22.9072C19.6727 23.5707 19.5312 24.2818 19.5313 25Z" fill="#D27676"/>
<path d="M8.499 29.7822L8.6885 29.5927C8.80988 29.4713 8.87807 29.3067 8.87807 29.1351C8.87807 28.9634 8.80988 28.7988 8.6885 28.6774C8.611 28.5998 8.55066 28.5069 8.51139 28.4045C8.47212 28.3022 8.45479 28.1927 8.46053 28.0832C8.46955 27.9684 8.44648 27.8533 8.39388 27.7508C8.34128 27.6483 8.26122 27.5625 8.16266 27.5029L7.88295 27.3412C7.7925 27.2881 7.69044 27.2578 7.58565 27.2531C7.48086 27.2484 7.3765 27.2693 7.28164 27.3141C7.18678 27.3589 7.10428 27.4261 7.04132 27.51C6.97835 27.5939 6.93683 27.6919 6.92035 27.7955C6.86955 28.1554 6.90302 28.5222 7.01813 28.867C7.13324 29.2117 7.32683 29.525 7.58367 29.7822C7.70505 29.9036 7.86968 29.9718 8.04134 29.9718C8.21299 29.9718 8.37762 29.9036 8.499 29.7822Z" fill="#EC9090"/>
<path d="M42.1875 10.1562H37.5C37.0685 10.1562 36.7188 10.506 36.7188 10.9375V14.0625C36.7188 14.494 37.0685 14.8438 37.5 14.8438H42.1875C42.619 14.8438 42.9688 14.494 42.9688 14.0625V10.9375C42.9688 10.506 42.619 10.1562 42.1875 10.1562Z" fill="#7DB6D6"/>
<path d="M32.0313 17.9688H46.0938C46.5082 17.9688 46.9056 17.8042 47.1986 17.5111C47.4916 17.2181 47.6563 16.8207 47.6563 16.4063V3.90629C47.6558 3.78261 47.6406 3.65942 47.6111 3.53931C47.3096 7.46483 45.5374 11.1319 42.6489 13.8071C39.7603 16.4824 35.9684 17.9687 32.0313 17.9688Z" fill="#006095"/>
<path d="M42.9688 13.5016C42.4778 13.9827 41.9558 14.4311 41.4062 14.8438H42.1875C42.3947 14.8438 42.5934 14.7615 42.7399 14.615C42.8865 14.4685 42.9688 14.2697 42.9688 14.0625V13.5016Z" fill="#6B9BB6"/>
<path d="M25.1673 33.5937H27.6836C27.8704 33.1826 28.1295 32.8083 28.4486 32.4888L28.867 32.0704C29.8926 31.0449 30.4687 29.6539 30.4688 28.2035V24.9999C30.4688 24.8915 30.4647 24.784 30.4585 24.6771C30.3834 26.4852 29.8607 28.2463 28.9372 29.8026C28.0137 31.3588 26.7183 32.6615 25.1673 33.5937Z" fill="#B36565"/>
<path d="M25.1627 33.5938C24.3691 34.0725 23.5176 34.4478 22.6288 34.7106C22.6467 34.8585 22.6559 35.0073 22.6563 35.1562H27.3438C27.344 34.6171 27.4599 34.0843 27.6836 33.5938H25.1627Z" fill="#D78D8B"/>
<path d="M38.5189 31.0123L37.5 32.0313L40.625 35.1563L41.6439 34.1373C40.4015 33.3179 39.3384 32.2547 38.5189 31.0123Z" fill="#D78D8B"/>
<path d="M8.57271 34.354L9.375 35.1563L12.5 32.0313L11.6977 31.229C10.8967 32.4863 9.83004 33.553 8.57271 34.354Z" fill="#D78D8B"/>
<path d="M17.1875 48.4375H33.5938V44.3972C33.5938 44.192 33.6342 43.9888 33.7127 43.7992C33.7912 43.6097 33.9063 43.4374 34.0514 43.2923L41.4063 35.9375L39.3848 33.916C35.6452 42.4639 27.1146 48.4375 17.1875 48.4375Z" fill="#E6AF78"/>
</svg>
