<svg width="34" height="35" viewBox="0 0 34 35" fill="none" xmlns="http://www.w3.org/2000/svg">
<path d="M4.25 9.66195C4.25 10.4992 4.66508 11.2826 5.35783 11.7515L13.8309 17.4933C15.7505 18.7938 18.2693 18.7938 20.1889 17.4933L28.6407 11.7643C29.3349 11.2968 29.75 10.5134 29.75 9.67612V9.66195C29.75 8.26795 28.6195 7.13745 27.2255 7.13745H6.7745C5.3805 7.13745 4.25 8.26795 4.25 9.66195V9.66195Z" stroke="#14748A" stroke-width="1.5" stroke-linecap="round" stroke-linejoin="round"/>
<path d="M4.25 9.9707V24.1374C4.25 25.7028 5.51792 26.9707 7.08333 26.9707H26.9167C28.4821 26.9707 29.75 25.7028 29.75 24.1374V9.9707" stroke="#14748A" stroke-width="1.5" stroke-linecap="round" stroke-linejoin="round"/>
<path d="M5.08017 26.1405L13.7785 17.4421" stroke="#14748A" stroke-width="1.5" stroke-linecap="round" stroke-linejoin="round"/>
<path d="M20.2314 17.4521L28.9156 26.1363" stroke="#14748A" stroke-width="1.5" stroke-linecap="round" stroke-linejoin="round"/>
</svg>
