<svg width="28" height="29" viewBox="0 0 28 29" fill="none" xmlns="http://www.w3.org/2000/svg">
<path d="M14 0.0405273C8.08583 0.0405273 0 4.51061 0 14.0405C0 23.3279 7.77717 28.0405 14 28.0405C24.6764 28.0405 28 18.687 28 14.0405C28 7.18383 22.7528 0.0405273 14 0.0405273ZM10.7535 1.35785C9.29291 2.60352 8.08031 4.66494 7.29764 7.22242C6.28346 6.62163 5.35197 5.87753 4.5252 5.01218C6.23386 3.22084 8.39449 1.96415 10.7535 1.35785ZM3.92441 5.68462C4.85039 6.64919 5.90315 7.47045 7.04961 8.12084C6.61969 9.79092 6.36614 11.6429 6.33307 13.5886H0.914961C1.01417 10.6838 2.07244 7.91139 3.92441 5.68462ZM3.92441 22.3964C2.06693 20.1697 1.01417 17.3972 0.914961 14.4925H6.33307C6.36614 16.4437 6.61969 18.2901 7.04961 19.9602C5.90866 20.6161 4.85591 21.4319 3.92441 22.3964ZM4.5252 23.0744C5.35197 22.209 6.28346 21.4649 7.29764 20.8641C8.08031 23.4161 9.29291 25.483 10.7535 26.7287C8.39449 26.1169 6.23386 24.8602 4.5252 23.0744ZM13.548 27.1035C11.2 26.8059 9.17717 24.1823 8.08583 20.4232C9.77244 19.5689 11.6354 19.0893 13.548 19.0177V27.1035ZM13.548 18.1193C11.5528 18.1854 9.6126 18.676 7.85433 19.5358C7.48504 17.9925 7.26457 16.2893 7.2315 14.4925H13.548V18.1193ZM13.548 13.5886H7.2315C7.26457 11.7917 7.48504 10.0886 7.85433 8.54525C9.61811 9.40509 11.5583 9.89565 13.548 9.96179V13.5886ZM13.548 9.06336C11.6299 8.99722 9.77244 8.51218 8.08583 7.65785C9.17717 3.89328 11.2 1.27517 13.548 0.977535V9.06336ZM24.0756 5.68462C25.9276 7.91139 26.9858 10.6838 27.085 13.5886H21.6724C21.6394 11.6374 21.3858 9.79092 20.9559 8.12084C22.0969 7.46494 23.1496 6.64919 24.0756 5.68462ZM23.4748 5.00667C22.648 5.87202 21.7165 6.61612 20.7024 7.21691C19.9197 4.66494 18.7071 2.60352 17.2465 1.35234C19.6055 1.96415 21.7661 3.22084 23.4748 5.00667ZM14.452 0.977535C16.8 1.27517 18.8228 3.8988 19.9142 7.65785C18.2276 8.51218 16.3701 8.99171 14.452 9.06336V0.977535ZM14.452 9.96179C16.4472 9.89565 18.3874 9.40509 20.1457 8.54525C20.515 10.0886 20.7354 11.7917 20.7685 13.5886H14.452V9.96179ZM14.452 14.4925H20.7685C20.7354 16.2893 20.515 17.9925 20.1457 19.5358C18.3874 18.6704 16.4472 18.1799 14.452 18.1193V14.4925ZM14.452 27.1035V19.0177C16.3701 19.0838 18.2276 19.5689 19.9142 20.4232C18.8228 24.1878 16.8 26.8059 14.452 27.1035ZM17.2465 26.7232C18.7071 25.4775 19.9197 23.4161 20.7024 20.8586C21.7165 21.4594 22.648 22.2035 23.4748 23.0689C21.7661 24.8602 19.6055 26.1169 17.2465 26.7232ZM24.0756 22.3964C23.1496 21.4319 22.0969 20.6161 20.9559 19.9602C21.3858 18.2901 21.6394 16.4382 21.6724 14.4925H27.085C26.9858 17.3972 25.9276 20.1697 24.0756 22.3964Z" fill="#1C5AD3"/>
</svg>
