<svg width="34" height="35" viewBox="0 0 34 35" fill="none" xmlns="http://www.w3.org/2000/svg">
<path d="M25.789 8.20328C23.4572 5.87003 20.3561 4.58369 17.0524 4.58228C10.2425 4.58228 4.70192 10.12 4.70051 16.9271C4.69767 19.0932 5.26576 21.2224 6.34809 23.0995L4.59567 29.4972L11.1435 27.7802C12.9554 28.7662 14.9841 29.2833 17.0468 29.2833H17.0524C23.8595 29.2833 29.4001 23.7441 29.4029 16.937C29.4043 13.639 28.1208 10.5379 25.789 8.20328Z" stroke="#A3ED5C" stroke-width="1.5" stroke-linecap="round" stroke-linejoin="round"/>
<path d="M18.5512 19.2504L19.1264 18.6795C19.6548 18.1553 20.4907 18.0887 21.0998 18.5166C21.6892 18.9302 22.2218 19.3014 22.7177 19.6471C23.5053 20.1939 23.6002 21.3159 22.9217 21.9931L22.4131 22.5016" stroke="#A3ED5C" stroke-width="1.5" stroke-linecap="round" stroke-linejoin="round"/>
<path d="M11.5388 11.6273L12.0474 11.1188C12.7245 10.4416 13.8465 10.5365 14.3934 11.3228C14.7376 11.8186 15.1088 12.3513 15.5239 12.9406C15.9517 13.5498 15.8865 14.3856 15.361 14.914L14.79 15.4892" stroke="#A3ED5C" stroke-width="1.5" stroke-linecap="round" stroke-linejoin="round"/>
<path d="M22.4131 22.5017C20.315 24.5898 16.7889 22.8162 14.0052 20.031" stroke="#A3ED5C" stroke-width="1.5" stroke-linecap="round" stroke-linejoin="round"/>
<path d="M14.008 20.0351C11.2243 17.2499 9.45062 13.7253 11.5388 11.6272" stroke="#A3ED5C" stroke-width="1.5" stroke-linecap="round" stroke-linejoin="round"/>
<path d="M14.79 15.4893C15.242 16.2018 15.8214 16.9073 16.4759 17.5618L16.4787 17.5647C17.1332 18.2192 17.8387 18.7986 18.5513 19.2505" stroke="#A3ED5C" stroke-width="1.5" stroke-linecap="round" stroke-linejoin="round"/>
</svg>
